<mxfile host="Electron" modified="2024-02-28T11:53:47.206Z" agent="Mozilla/5.0 (Macintosh; Intel Mac OS X 10_15_7) AppleWebKit/537.36 (KHTML, like Gecko) draw.io/23.0.2 Chrome/120.0.6099.109 Electron/28.1.0 Safari/537.36" etag="Ybu6XCwr1iTGVAGxVfZn" version="23.0.2" type="device">
  <diagram name="Page-1" id="ViOyhHF_WWYx06M834H4">
    <mxGraphModel dx="842" dy="1877" grid="1" gridSize="10" guides="1" tooltips="1" connect="1" arrows="1" fold="1" page="1" pageScale="1" pageWidth="827" pageHeight="1169" math="0" shadow="0">
      <root>
        <mxCell id="0" />
        <mxCell id="1" parent="0" />
        <mxCell id="Rp7mxz4orwssZvqJoNBO-1" value="CarÂ &#xa;{abstract}" style="swimlane;fontStyle=1;align=center;verticalAlign=top;childLayout=stackLayout;horizontal=1;startSize=40;horizontalStack=0;resizeParent=1;resizeLast=0;collapsible=1;marginBottom=0;rounded=0;shadow=0;strokeWidth=1;" vertex="1" parent="1">
          <mxGeometry x="220" y="20" width="160" height="580" as="geometry">
            <mxRectangle x="230" y="140" width="160" height="26" as="alternateBounds" />
          </mxGeometry>
        </mxCell>
        <mxCell id="Rp7mxz4orwssZvqJoNBO-2" value="- nrDoors : int" style="text;align=left;verticalAlign=top;spacingLeft=4;spacingRight=4;overflow=hidden;rotatable=0;points=[[0,0.5],[1,0.5]];portConstraint=eastwest;fontStyle=0" vertex="1" parent="Rp7mxz4orwssZvqJoNBO-1">
          <mxGeometry y="40" width="160" height="26" as="geometry" />
        </mxCell>
        <mxCell id="Rp7mxz4orwssZvqJoNBO-3" value="- enginePower : int" style="text;align=left;verticalAlign=top;spacingLeft=4;spacingRight=4;overflow=hidden;rotatable=0;points=[[0,0.5],[1,0.5]];portConstraint=eastwest;rounded=0;shadow=0;html=0;fontStyle=0" vertex="1" parent="Rp7mxz4orwssZvqJoNBO-1">
          <mxGeometry y="66" width="160" height="26" as="geometry" />
        </mxCell>
        <mxCell id="Rp7mxz4orwssZvqJoNBO-4" value="+ currentSpeed : double" style="text;align=left;verticalAlign=top;spacingLeft=4;spacingRight=4;overflow=hidden;rotatable=0;points=[[0,0.5],[1,0.5]];portConstraint=eastwest;rounded=0;shadow=0;html=0;" vertex="1" parent="Rp7mxz4orwssZvqJoNBO-1">
          <mxGeometry y="92" width="160" height="26" as="geometry" />
        </mxCell>
        <mxCell id="Rp7mxz4orwssZvqJoNBO-5" value="+ color : Color" style="text;align=left;verticalAlign=top;spacingLeft=4;spacingRight=4;overflow=hidden;rotatable=0;points=[[0,0.5],[1,0.5]];portConstraint=eastwest;rounded=0;shadow=0;html=0;" vertex="1" parent="Rp7mxz4orwssZvqJoNBO-1">
          <mxGeometry y="118" width="160" height="26" as="geometry" />
        </mxCell>
        <mxCell id="Rp7mxz4orwssZvqJoNBO-6" value="+ modelName : String" style="text;align=left;verticalAlign=top;spacingLeft=4;spacingRight=4;overflow=hidden;rotatable=0;points=[[0,0.5],[1,0.5]];portConstraint=eastwest;rounded=0;shadow=0;html=0;fontStyle=0" vertex="1" parent="Rp7mxz4orwssZvqJoNBO-1">
          <mxGeometry y="144" width="160" height="26" as="geometry" />
        </mxCell>
        <mxCell id="Rp7mxz4orwssZvqJoNBO-7" value="+ point : Point2D" style="text;align=left;verticalAlign=top;spacingLeft=4;spacingRight=4;overflow=hidden;rotatable=0;points=[[0,0.5],[1,0.5]];portConstraint=eastwest;rounded=0;shadow=0;html=0;fontStyle=0" vertex="1" parent="Rp7mxz4orwssZvqJoNBO-1">
          <mxGeometry y="170" width="160" height="26" as="geometry" />
        </mxCell>
        <mxCell id="Rp7mxz4orwssZvqJoNBO-8" value="+ direction : Point&#xa;- image : Bufferedimage" style="text;align=left;verticalAlign=top;spacingLeft=4;spacingRight=4;overflow=hidden;rotatable=0;points=[[0,0.5],[1,0.5]];portConstraint=eastwest;rounded=0;shadow=0;html=0;fontStyle=0" vertex="1" parent="Rp7mxz4orwssZvqJoNBO-1">
          <mxGeometry y="196" width="160" height="64" as="geometry" />
        </mxCell>
        <mxCell id="Rp7mxz4orwssZvqJoNBO-9" value="" style="line;html=1;strokeWidth=1;align=left;verticalAlign=middle;spacingTop=-1;spacingLeft=3;spacingRight=3;rotatable=0;labelPosition=right;points=[];portConstraint=eastwest;" vertex="1" parent="Rp7mxz4orwssZvqJoNBO-1">
          <mxGeometry y="260" width="160" height="8" as="geometry" />
        </mxCell>
        <mxCell id="Rp7mxz4orwssZvqJoNBO-10" value="+ startEngine() : void" style="text;align=left;verticalAlign=top;spacingLeft=4;spacingRight=4;overflow=hidden;rotatable=0;points=[[0,0.5],[1,0.5]];portConstraint=eastwest;rounded=0;shadow=0;html=0;fontStyle=0" vertex="1" parent="Rp7mxz4orwssZvqJoNBO-1">
          <mxGeometry y="268" width="160" height="26" as="geometry" />
        </mxCell>
        <mxCell id="Rp7mxz4orwssZvqJoNBO-11" value="+ stopEngine() : void" style="text;align=left;verticalAlign=top;spacingLeft=4;spacingRight=4;overflow=hidden;rotatable=0;points=[[0,0.5],[1,0.5]];portConstraint=eastwest;rounded=0;shadow=0;html=0;fontStyle=0" vertex="1" parent="Rp7mxz4orwssZvqJoNBO-1">
          <mxGeometry y="294" width="160" height="26" as="geometry" />
        </mxCell>
        <mxCell id="Rp7mxz4orwssZvqJoNBO-12" value="+ move() : void" style="text;align=left;verticalAlign=top;spacingLeft=4;spacingRight=4;overflow=hidden;rotatable=0;points=[[0,0.5],[1,0.5]];portConstraint=eastwest;rounded=0;shadow=0;html=0;fontStyle=0" vertex="1" parent="Rp7mxz4orwssZvqJoNBO-1">
          <mxGeometry y="320" width="160" height="26" as="geometry" />
        </mxCell>
        <mxCell id="Rp7mxz4orwssZvqJoNBO-13" value="+ turnLeft() : void" style="text;align=left;verticalAlign=top;spacingLeft=4;spacingRight=4;overflow=hidden;rotatable=0;points=[[0,0.5],[1,0.5]];portConstraint=eastwest;rounded=0;shadow=0;html=0;fontStyle=0" vertex="1" parent="Rp7mxz4orwssZvqJoNBO-1">
          <mxGeometry y="346" width="160" height="26" as="geometry" />
        </mxCell>
        <mxCell id="Rp7mxz4orwssZvqJoNBO-14" value="+ turnRight() : void" style="text;align=left;verticalAlign=top;spacingLeft=4;spacingRight=4;overflow=hidden;rotatable=0;points=[[0,0.5],[1,0.5]];portConstraint=eastwest;rounded=0;shadow=0;html=0;fontStyle=0" vertex="1" parent="Rp7mxz4orwssZvqJoNBO-1">
          <mxGeometry y="372" width="160" height="26" as="geometry" />
        </mxCell>
        <mxCell id="Rp7mxz4orwssZvqJoNBO-15" value="+ speedFactor() : double" style="text;align=left;verticalAlign=top;spacingLeft=4;spacingRight=4;overflow=hidden;rotatable=0;points=[[0,0.5],[1,0.5]];portConstraint=eastwest;rounded=0;shadow=0;html=0;fontStyle=2" vertex="1" parent="Rp7mxz4orwssZvqJoNBO-1">
          <mxGeometry y="398" width="160" height="26" as="geometry" />
        </mxCell>
        <mxCell id="Rp7mxz4orwssZvqJoNBO-16" value="+ incrementSpeed() : void" style="text;align=left;verticalAlign=top;spacingLeft=4;spacingRight=4;overflow=hidden;rotatable=0;points=[[0,0.5],[1,0.5]];portConstraint=eastwest;rounded=0;shadow=0;html=0;fontStyle=2" vertex="1" parent="Rp7mxz4orwssZvqJoNBO-1">
          <mxGeometry y="424" width="160" height="26" as="geometry" />
        </mxCell>
        <mxCell id="Rp7mxz4orwssZvqJoNBO-17" value="+ decrementSpeed() : void" style="text;align=left;verticalAlign=top;spacingLeft=4;spacingRight=4;overflow=hidden;rotatable=0;points=[[0,0.5],[1,0.5]];portConstraint=eastwest;rounded=0;shadow=0;html=0;fontStyle=2" vertex="1" parent="Rp7mxz4orwssZvqJoNBO-1">
          <mxGeometry y="450" width="160" height="26" as="geometry" />
        </mxCell>
        <mxCell id="Rp7mxz4orwssZvqJoNBO-18" value="+ gas() : void" style="text;align=left;verticalAlign=top;spacingLeft=4;spacingRight=4;overflow=hidden;rotatable=0;points=[[0,0.5],[1,0.5]];portConstraint=eastwest;rounded=0;shadow=0;html=0;fontStyle=2" vertex="1" parent="Rp7mxz4orwssZvqJoNBO-1">
          <mxGeometry y="476" width="160" height="26" as="geometry" />
        </mxCell>
        <mxCell id="Rp7mxz4orwssZvqJoNBO-19" value="+ brake() : void" style="text;align=left;verticalAlign=top;spacingLeft=4;spacingRight=4;overflow=hidden;rotatable=0;points=[[0,0.5],[1,0.5]];portConstraint=eastwest;rounded=0;shadow=0;html=0;fontStyle=2" vertex="1" parent="Rp7mxz4orwssZvqJoNBO-1">
          <mxGeometry y="502" width="160" height="26" as="geometry" />
        </mxCell>
        <mxCell id="Rp7mxz4orwssZvqJoNBO-20" value="+ setPos() : void&#xa;+ getImage() : Bufferedimage" style="text;align=left;verticalAlign=top;spacingLeft=4;spacingRight=4;overflow=hidden;rotatable=0;points=[[0,0.5],[1,0.5]];portConstraint=eastwest;rounded=0;shadow=0;html=0;fontStyle=2" vertex="1" parent="Rp7mxz4orwssZvqJoNBO-1">
          <mxGeometry y="528" width="160" height="52" as="geometry" />
        </mxCell>
        <mxCell id="Rp7mxz4orwssZvqJoNBO-21" value="Volvo240" style="swimlane;fontStyle=1;align=center;verticalAlign=top;childLayout=stackLayout;horizontal=1;startSize=26;horizontalStack=0;resizeParent=1;resizeLast=0;collapsible=1;marginBottom=0;rounded=0;shadow=0;strokeWidth=1;" vertex="1" parent="1">
          <mxGeometry x="115" y="690" width="160" height="120" as="geometry">
            <mxRectangle x="130" y="380" width="160" height="26" as="alternateBounds" />
          </mxGeometry>
        </mxCell>
        <mxCell id="Rp7mxz4orwssZvqJoNBO-22" value="- trimFactor : double&#xa;" style="text;align=left;verticalAlign=top;spacingLeft=4;spacingRight=4;overflow=hidden;rotatable=0;points=[[0,0.5],[1,0.5]];portConstraint=eastwest;fontStyle=4" vertex="1" parent="Rp7mxz4orwssZvqJoNBO-21">
          <mxGeometry y="26" width="160" height="34" as="geometry" />
        </mxCell>
        <mxCell id="Rp7mxz4orwssZvqJoNBO-23" value="" style="line;html=1;strokeWidth=1;align=left;verticalAlign=middle;spacingTop=-1;spacingLeft=3;spacingRight=3;rotatable=0;labelPosition=right;points=[];portConstraint=eastwest;" vertex="1" parent="Rp7mxz4orwssZvqJoNBO-21">
          <mxGeometry y="60" width="160" height="8" as="geometry" />
        </mxCell>
        <mxCell id="Rp7mxz4orwssZvqJoNBO-24" value="+ speedFactor() : double&#xa;" style="text;align=left;verticalAlign=top;spacingLeft=4;spacingRight=4;overflow=hidden;rotatable=0;points=[[0,0.5],[1,0.5]];portConstraint=eastwest;fontStyle=0" vertex="1" parent="Rp7mxz4orwssZvqJoNBO-21">
          <mxGeometry y="68" width="160" height="42" as="geometry" />
        </mxCell>
        <mxCell id="Rp7mxz4orwssZvqJoNBO-25" value="" style="endArrow=block;endSize=10;endFill=0;shadow=0;strokeWidth=1;rounded=0;edgeStyle=elbowEdgeStyle;elbow=vertical;" edge="1" parent="1" source="Rp7mxz4orwssZvqJoNBO-21" target="Rp7mxz4orwssZvqJoNBO-1">
          <mxGeometry width="160" relative="1" as="geometry">
            <mxPoint x="200" y="203" as="sourcePoint" />
            <mxPoint x="200" y="203" as="targetPoint" />
          </mxGeometry>
        </mxCell>
        <mxCell id="Rp7mxz4orwssZvqJoNBO-26" value="Saab95" style="swimlane;fontStyle=1;align=center;verticalAlign=top;childLayout=stackLayout;horizontal=1;startSize=26;horizontalStack=0;resizeParent=1;resizeLast=0;collapsible=1;marginBottom=0;rounded=0;shadow=0;strokeWidth=1;" vertex="1" parent="1">
          <mxGeometry x="325" y="690" width="160" height="170" as="geometry">
            <mxRectangle x="340" y="380" width="170" height="26" as="alternateBounds" />
          </mxGeometry>
        </mxCell>
        <mxCell id="Rp7mxz4orwssZvqJoNBO-27" value="+ turboOn : boolean&#xa;" style="text;align=left;verticalAlign=top;spacingLeft=4;spacingRight=4;overflow=hidden;rotatable=0;points=[[0,0.5],[1,0.5]];portConstraint=eastwest;" vertex="1" parent="Rp7mxz4orwssZvqJoNBO-26">
          <mxGeometry y="26" width="160" height="34" as="geometry" />
        </mxCell>
        <mxCell id="Rp7mxz4orwssZvqJoNBO-28" value="" style="line;html=1;strokeWidth=1;align=left;verticalAlign=middle;spacingTop=-1;spacingLeft=3;spacingRight=3;rotatable=0;labelPosition=right;points=[];portConstraint=eastwest;" vertex="1" parent="Rp7mxz4orwssZvqJoNBO-26">
          <mxGeometry y="60" width="160" height="8" as="geometry" />
        </mxCell>
        <mxCell id="Rp7mxz4orwssZvqJoNBO-29" value="+ setTurboOn() : void" style="text;align=left;verticalAlign=top;spacingLeft=4;spacingRight=4;overflow=hidden;rotatable=0;points=[[0,0.5],[1,0.5]];portConstraint=eastwest;" vertex="1" parent="Rp7mxz4orwssZvqJoNBO-26">
          <mxGeometry y="68" width="160" height="26" as="geometry" />
        </mxCell>
        <mxCell id="Rp7mxz4orwssZvqJoNBO-30" value="+ setTurboOff() : void" style="text;align=left;verticalAlign=top;spacingLeft=4;spacingRight=4;overflow=hidden;rotatable=0;points=[[0,0.5],[1,0.5]];portConstraint=eastwest;" vertex="1" parent="Rp7mxz4orwssZvqJoNBO-26">
          <mxGeometry y="94" width="160" height="26" as="geometry" />
        </mxCell>
        <mxCell id="Rp7mxz4orwssZvqJoNBO-31" value="+ speedFactor() : double&#xa;" style="text;align=left;verticalAlign=top;spacingLeft=4;spacingRight=4;overflow=hidden;rotatable=0;points=[[0,0.5],[1,0.5]];portConstraint=eastwest;" vertex="1" parent="Rp7mxz4orwssZvqJoNBO-26">
          <mxGeometry y="120" width="160" height="50" as="geometry" />
        </mxCell>
        <mxCell id="Rp7mxz4orwssZvqJoNBO-32" value="" style="endArrow=block;endSize=10;endFill=0;shadow=0;strokeWidth=1;rounded=0;edgeStyle=elbowEdgeStyle;elbow=vertical;" edge="1" parent="1" source="Rp7mxz4orwssZvqJoNBO-26" target="Rp7mxz4orwssZvqJoNBO-1">
          <mxGeometry width="160" relative="1" as="geometry">
            <mxPoint x="210" y="373" as="sourcePoint" />
            <mxPoint x="310" y="271" as="targetPoint" />
          </mxGeometry>
        </mxCell>
        <mxCell id="Rp7mxz4orwssZvqJoNBO-33" value="CargoSpace" style="swimlane;fontStyle=1;align=center;verticalAlign=top;childLayout=stackLayout;horizontal=1;startSize=26;horizontalStack=0;resizeParent=1;resizeLast=0;collapsible=1;marginBottom=0;rounded=0;shadow=0;strokeWidth=1;" vertex="1" parent="1">
          <mxGeometry x="590" y="495" width="160" height="90" as="geometry">
            <mxRectangle x="550" y="140" width="160" height="26" as="alternateBounds" />
          </mxGeometry>
        </mxCell>
        <mxCell id="Rp7mxz4orwssZvqJoNBO-34" value="+ cargo : Stack&lt;Car&gt;" style="text;align=left;verticalAlign=top;spacingLeft=4;spacingRight=4;overflow=hidden;rotatable=0;points=[[0,0.5],[1,0.5]];portConstraint=eastwest;" vertex="1" parent="Rp7mxz4orwssZvqJoNBO-33">
          <mxGeometry y="26" width="160" height="26" as="geometry" />
        </mxCell>
        <mxCell id="Rp7mxz4orwssZvqJoNBO-35" value="+ maxsize : int" style="text;align=left;verticalAlign=top;spacingLeft=4;spacingRight=4;overflow=hidden;rotatable=0;points=[[0,0.5],[1,0.5]];portConstraint=eastwest;rounded=0;shadow=0;html=0;" vertex="1" parent="Rp7mxz4orwssZvqJoNBO-33">
          <mxGeometry y="52" width="160" height="26" as="geometry" />
        </mxCell>
        <mxCell id="Rp7mxz4orwssZvqJoNBO-36" value="" style="line;html=1;strokeWidth=1;align=left;verticalAlign=middle;spacingTop=-1;spacingLeft=3;spacingRight=3;rotatable=0;labelPosition=right;points=[];portConstraint=eastwest;" vertex="1" parent="Rp7mxz4orwssZvqJoNBO-33">
          <mxGeometry y="78" width="160" height="8" as="geometry" />
        </mxCell>
        <mxCell id="Rp7mxz4orwssZvqJoNBO-37" value="" style="endArrow=open;shadow=0;strokeWidth=1;rounded=0;endFill=1;edgeStyle=elbowEdgeStyle;elbow=vertical;exitX=0.75;exitY=0;exitDx=0;exitDy=0;entryX=0.5;entryY=1;entryDx=0;entryDy=0;" edge="1" parent="1" source="Rp7mxz4orwssZvqJoNBO-49" target="Rp7mxz4orwssZvqJoNBO-33">
          <mxGeometry x="0.5" y="41" relative="1" as="geometry">
            <mxPoint x="680" y="570" as="sourcePoint" />
            <mxPoint x="390" y="192" as="targetPoint" />
            <mxPoint x="-40" y="32" as="offset" />
            <Array as="points">
              <mxPoint x="710" y="650" />
            </Array>
          </mxGeometry>
        </mxCell>
        <mxCell id="Rp7mxz4orwssZvqJoNBO-38" value="Truck&#xa;{abstract}" style="swimlane;fontStyle=1;align=center;verticalAlign=top;childLayout=stackLayout;horizontal=1;startSize=40;horizontalStack=0;resizeParent=1;resizeLast=0;collapsible=1;marginBottom=0;rounded=0;shadow=0;strokeWidth=1;" vertex="1" parent="1">
          <mxGeometry x="520" y="690" width="160" height="190" as="geometry">
            <mxRectangle x="340" y="380" width="170" height="26" as="alternateBounds" />
          </mxGeometry>
        </mxCell>
        <mxCell id="Rp7mxz4orwssZvqJoNBO-39" value="+ angle : int" style="text;align=left;verticalAlign=top;spacingLeft=4;spacingRight=4;overflow=hidden;rotatable=0;points=[[0,0.5],[1,0.5]];portConstraint=eastwest;" vertex="1" parent="Rp7mxz4orwssZvqJoNBO-38">
          <mxGeometry y="40" width="160" height="26" as="geometry" />
        </mxCell>
        <mxCell id="Rp7mxz4orwssZvqJoNBO-40" value="" style="line;html=1;strokeWidth=1;align=left;verticalAlign=middle;spacingTop=-1;spacingLeft=3;spacingRight=3;rotatable=0;labelPosition=right;points=[];portConstraint=eastwest;" vertex="1" parent="Rp7mxz4orwssZvqJoNBO-38">
          <mxGeometry y="66" width="160" height="8" as="geometry" />
        </mxCell>
        <mxCell id="Rp7mxz4orwssZvqJoNBO-41" value="+ startEngine() : void" style="text;align=left;verticalAlign=top;spacingLeft=4;spacingRight=4;overflow=hidden;rotatable=0;points=[[0,0.5],[1,0.5]];portConstraint=eastwest;" vertex="1" parent="Rp7mxz4orwssZvqJoNBO-38">
          <mxGeometry y="74" width="160" height="26" as="geometry" />
        </mxCell>
        <mxCell id="Rp7mxz4orwssZvqJoNBO-42" value="+ changeAngle() : void" style="text;align=left;verticalAlign=top;spacingLeft=4;spacingRight=4;overflow=hidden;rotatable=0;points=[[0,0.5],[1,0.5]];portConstraint=eastwest;fontStyle=2" vertex="1" parent="Rp7mxz4orwssZvqJoNBO-38">
          <mxGeometry y="100" width="160" height="26" as="geometry" />
        </mxCell>
        <mxCell id="Rp7mxz4orwssZvqJoNBO-43" value="+ speedFactor() : double" style="text;align=left;verticalAlign=top;spacingLeft=4;spacingRight=4;overflow=hidden;rotatable=0;points=[[0,0.5],[1,0.5]];portConstraint=eastwest;" vertex="1" parent="Rp7mxz4orwssZvqJoNBO-38">
          <mxGeometry y="126" width="160" height="26" as="geometry" />
        </mxCell>
        <mxCell id="Rp7mxz4orwssZvqJoNBO-44" value="+ incrementSpeed() : void" style="text;align=left;verticalAlign=top;spacingLeft=4;spacingRight=4;overflow=hidden;rotatable=0;points=[[0,0.5],[1,0.5]];portConstraint=eastwest;" vertex="1" parent="Rp7mxz4orwssZvqJoNBO-38">
          <mxGeometry y="152" width="160" height="26" as="geometry" />
        </mxCell>
        <mxCell id="Rp7mxz4orwssZvqJoNBO-45" value="" style="endArrow=block;endSize=10;endFill=0;shadow=0;strokeWidth=1;rounded=0;edgeStyle=elbowEdgeStyle;elbow=vertical;exitX=0.5;exitY=0;exitDx=0;exitDy=0;" edge="1" parent="1" source="Rp7mxz4orwssZvqJoNBO-38">
          <mxGeometry width="160" relative="1" as="geometry">
            <mxPoint x="415" y="700" as="sourcePoint" />
            <mxPoint x="300" y="590" as="targetPoint" />
          </mxGeometry>
        </mxCell>
        <mxCell id="Rp7mxz4orwssZvqJoNBO-46" value="Scania" style="swimlane;fontStyle=1;align=center;verticalAlign=top;childLayout=stackLayout;horizontal=1;startSize=26;horizontalStack=0;resizeParent=1;resizeLast=0;collapsible=1;marginBottom=0;rounded=0;shadow=0;strokeWidth=1;" vertex="1" parent="1">
          <mxGeometry x="470" y="975.58" width="160" height="60" as="geometry">
            <mxRectangle x="340" y="380" width="170" height="26" as="alternateBounds" />
          </mxGeometry>
        </mxCell>
        <mxCell id="Rp7mxz4orwssZvqJoNBO-47" value="" style="line;html=1;strokeWidth=1;align=left;verticalAlign=middle;spacingTop=-1;spacingLeft=3;spacingRight=3;rotatable=0;labelPosition=right;points=[];portConstraint=eastwest;" vertex="1" parent="Rp7mxz4orwssZvqJoNBO-46">
          <mxGeometry y="26" width="160" height="8" as="geometry" />
        </mxCell>
        <mxCell id="Rp7mxz4orwssZvqJoNBO-48" value="+ changeAngle() : void" style="text;align=left;verticalAlign=top;spacingLeft=4;spacingRight=4;overflow=hidden;rotatable=0;points=[[0,0.5],[1,0.5]];portConstraint=eastwest;fontStyle=2" vertex="1" parent="Rp7mxz4orwssZvqJoNBO-46">
          <mxGeometry y="34" width="160" height="26" as="geometry" />
        </mxCell>
        <mxCell id="Rp7mxz4orwssZvqJoNBO-49" value="Transport" style="swimlane;fontStyle=1;align=center;verticalAlign=top;childLayout=stackLayout;horizontal=1;startSize=26;horizontalStack=0;resizeParent=1;resizeLast=0;collapsible=1;marginBottom=0;rounded=0;shadow=0;strokeWidth=1;" vertex="1" parent="1">
          <mxGeometry x="640" y="945.58" width="160" height="164" as="geometry">
            <mxRectangle x="340" y="380" width="170" height="26" as="alternateBounds" />
          </mxGeometry>
        </mxCell>
        <mxCell id="Rp7mxz4orwssZvqJoNBO-50" value="- cs : CargoSpace" style="text;align=left;verticalAlign=top;spacingLeft=4;spacingRight=4;overflow=hidden;rotatable=0;points=[[0,0.5],[1,0.5]];portConstraint=eastwest;fontStyle=2" vertex="1" parent="Rp7mxz4orwssZvqJoNBO-49">
          <mxGeometry y="26" width="160" height="26" as="geometry" />
        </mxCell>
        <mxCell id="Rp7mxz4orwssZvqJoNBO-51" value="- posHelp : positionHelper" style="text;align=left;verticalAlign=top;spacingLeft=4;spacingRight=4;overflow=hidden;rotatable=0;points=[[0,0.5],[1,0.5]];portConstraint=eastwest;fontStyle=2" vertex="1" parent="Rp7mxz4orwssZvqJoNBO-49">
          <mxGeometry y="52" width="160" height="26" as="geometry" />
        </mxCell>
        <mxCell id="Rp7mxz4orwssZvqJoNBO-52" value="" style="line;html=1;strokeWidth=1;align=left;verticalAlign=middle;spacingTop=-1;spacingLeft=3;spacingRight=3;rotatable=0;labelPosition=right;points=[];portConstraint=eastwest;" vertex="1" parent="Rp7mxz4orwssZvqJoNBO-49">
          <mxGeometry y="78" width="160" height="8" as="geometry" />
        </mxCell>
        <mxCell id="Rp7mxz4orwssZvqJoNBO-53" value="+ changeAngle() : void" style="text;align=left;verticalAlign=top;spacingLeft=4;spacingRight=4;overflow=hidden;rotatable=0;points=[[0,0.5],[1,0.5]];portConstraint=eastwest;fontStyle=2" vertex="1" parent="Rp7mxz4orwssZvqJoNBO-49">
          <mxGeometry y="86" width="160" height="26" as="geometry" />
        </mxCell>
        <mxCell id="Rp7mxz4orwssZvqJoNBO-54" value="+ loadCargo() : void" style="text;align=left;verticalAlign=top;spacingLeft=4;spacingRight=4;overflow=hidden;rotatable=0;points=[[0,0.5],[1,0.5]];portConstraint=eastwest;fontStyle=2" vertex="1" parent="Rp7mxz4orwssZvqJoNBO-49">
          <mxGeometry y="112" width="160" height="26" as="geometry" />
        </mxCell>
        <mxCell id="Rp7mxz4orwssZvqJoNBO-55" value="+ offLoadCargo() : Car" style="text;align=left;verticalAlign=top;spacingLeft=4;spacingRight=4;overflow=hidden;rotatable=0;points=[[0,0.5],[1,0.5]];portConstraint=eastwest;fontStyle=2" vertex="1" parent="Rp7mxz4orwssZvqJoNBO-49">
          <mxGeometry y="138" width="160" height="26" as="geometry" />
        </mxCell>
        <mxCell id="Rp7mxz4orwssZvqJoNBO-56" value="Workshop" style="swimlane;fontStyle=1;align=center;verticalAlign=top;childLayout=stackLayout;horizontal=1;startSize=26;horizontalStack=0;resizeParent=1;resizeLast=0;collapsible=1;marginBottom=0;rounded=0;shadow=0;strokeWidth=1;" vertex="1" parent="1">
          <mxGeometry x="840" y="690" width="160" height="190" as="geometry">
            <mxRectangle x="340" y="380" width="170" height="26" as="alternateBounds" />
          </mxGeometry>
        </mxCell>
        <mxCell id="Rp7mxz4orwssZvqJoNBO-57" value="- cs : CargoSpace" style="text;align=left;verticalAlign=top;spacingLeft=4;spacingRight=4;overflow=hidden;rotatable=0;points=[[0,0.5],[1,0.5]];portConstraint=eastwest;fontStyle=2" vertex="1" parent="Rp7mxz4orwssZvqJoNBO-56">
          <mxGeometry y="26" width="160" height="26" as="geometry" />
        </mxCell>
        <mxCell id="Rp7mxz4orwssZvqJoNBO-58" value="- posHelp : positionHelper" style="text;align=left;verticalAlign=top;spacingLeft=4;spacingRight=4;overflow=hidden;rotatable=0;points=[[0,0.5],[1,0.5]];portConstraint=eastwest;fontStyle=2" vertex="1" parent="Rp7mxz4orwssZvqJoNBO-56">
          <mxGeometry y="52" width="160" height="26" as="geometry" />
        </mxCell>
        <mxCell id="Rp7mxz4orwssZvqJoNBO-59" value="- point : Point2D" style="text;align=left;verticalAlign=top;spacingLeft=4;spacingRight=4;overflow=hidden;rotatable=0;points=[[0,0.5],[1,0.5]];portConstraint=eastwest;fontStyle=2" vertex="1" parent="Rp7mxz4orwssZvqJoNBO-56">
          <mxGeometry y="78" width="160" height="26" as="geometry" />
        </mxCell>
        <mxCell id="Rp7mxz4orwssZvqJoNBO-60" value="" style="line;html=1;strokeWidth=1;align=left;verticalAlign=middle;spacingTop=-1;spacingLeft=3;spacingRight=3;rotatable=0;labelPosition=right;points=[];portConstraint=eastwest;" vertex="1" parent="Rp7mxz4orwssZvqJoNBO-56">
          <mxGeometry y="104" width="160" height="8" as="geometry" />
        </mxCell>
        <mxCell id="Rp7mxz4orwssZvqJoNBO-61" value="+ loadCargo() : void" style="text;align=left;verticalAlign=top;spacingLeft=4;spacingRight=4;overflow=hidden;rotatable=0;points=[[0,0.5],[1,0.5]];portConstraint=eastwest;fontStyle=2" vertex="1" parent="Rp7mxz4orwssZvqJoNBO-56">
          <mxGeometry y="112" width="160" height="26" as="geometry" />
        </mxCell>
        <mxCell id="Rp7mxz4orwssZvqJoNBO-62" value="+ offLoadCargo() : Car" style="text;align=left;verticalAlign=top;spacingLeft=4;spacingRight=4;overflow=hidden;rotatable=0;points=[[0,0.5],[1,0.5]];portConstraint=eastwest;fontStyle=2" vertex="1" parent="Rp7mxz4orwssZvqJoNBO-56">
          <mxGeometry y="138" width="160" height="26" as="geometry" />
        </mxCell>
        <mxCell id="Rp7mxz4orwssZvqJoNBO-63" value="+ changeAngle() : void" style="text;align=left;verticalAlign=top;spacingLeft=4;spacingRight=4;overflow=hidden;rotatable=0;points=[[0,0.5],[1,0.5]];portConstraint=eastwest;fontStyle=2" vertex="1" parent="Rp7mxz4orwssZvqJoNBO-56">
          <mxGeometry y="164" width="160" height="26" as="geometry" />
        </mxCell>
        <mxCell id="Rp7mxz4orwssZvqJoNBO-64" value="" style="endArrow=open;shadow=0;strokeWidth=1;rounded=0;endFill=1;edgeStyle=elbowEdgeStyle;elbow=vertical;exitX=0.5;exitY=0;exitDx=0;exitDy=0;entryX=0.5;entryY=1;entryDx=0;entryDy=0;" edge="1" parent="1" source="Rp7mxz4orwssZvqJoNBO-56" target="Rp7mxz4orwssZvqJoNBO-33">
          <mxGeometry x="0.5" y="41" relative="1" as="geometry">
            <mxPoint x="850" y="570" as="sourcePoint" />
            <mxPoint x="860" y="500" as="targetPoint" />
            <mxPoint x="-40" y="32" as="offset" />
            <Array as="points">
              <mxPoint x="800" y="650" />
            </Array>
          </mxGeometry>
        </mxCell>
        <mxCell id="Rp7mxz4orwssZvqJoNBO-65" value="PositionHelper" style="swimlane;fontStyle=1;align=center;verticalAlign=top;childLayout=stackLayout;horizontal=1;startSize=26;horizontalStack=0;resizeParent=1;resizeLast=0;collapsible=1;marginBottom=0;rounded=0;shadow=0;strokeWidth=1;" vertex="1" parent="1">
          <mxGeometry x="780" y="495" width="170" height="90" as="geometry">
            <mxRectangle x="550" y="140" width="160" height="26" as="alternateBounds" />
          </mxGeometry>
        </mxCell>
        <mxCell id="Rp7mxz4orwssZvqJoNBO-66" value="" style="line;html=1;strokeWidth=1;align=left;verticalAlign=middle;spacingTop=-1;spacingLeft=3;spacingRight=3;rotatable=0;labelPosition=right;points=[];portConstraint=eastwest;" vertex="1" parent="Rp7mxz4orwssZvqJoNBO-65">
          <mxGeometry y="26" width="170" height="8" as="geometry" />
        </mxCell>
        <mxCell id="Rp7mxz4orwssZvqJoNBO-67" value="+ avstÃ¥ndsFormeln() : double" style="text;align=left;verticalAlign=top;spacingLeft=4;spacingRight=4;overflow=hidden;rotatable=0;points=[[0,0.5],[1,0.5]];portConstraint=eastwest;" vertex="1" parent="Rp7mxz4orwssZvqJoNBO-65">
          <mxGeometry y="34" width="170" height="26" as="geometry" />
        </mxCell>
        <mxCell id="Rp7mxz4orwssZvqJoNBO-68" value="" style="endArrow=open;shadow=0;strokeWidth=1;rounded=0;endFill=1;edgeStyle=elbowEdgeStyle;elbow=vertical;entryX=0.5;entryY=1;entryDx=0;entryDy=0;exitX=0.5;exitY=0;exitDx=0;exitDy=0;" edge="1" parent="1" source="Rp7mxz4orwssZvqJoNBO-56" target="Rp7mxz4orwssZvqJoNBO-65">
          <mxGeometry x="0.5" y="41" relative="1" as="geometry">
            <mxPoint x="1020" y="690" as="sourcePoint" />
            <mxPoint x="1030" y="500" as="targetPoint" />
            <mxPoint x="-40" y="32" as="offset" />
            <Array as="points">
              <mxPoint x="900" y="650" />
            </Array>
          </mxGeometry>
        </mxCell>
        <mxCell id="Rp7mxz4orwssZvqJoNBO-69" value="" style="endArrow=open;shadow=0;strokeWidth=1;rounded=0;endFill=1;edgeStyle=elbowEdgeStyle;elbow=vertical;exitX=0.75;exitY=0;exitDx=0;exitDy=0;entryX=0.5;entryY=1;entryDx=0;entryDy=0;" edge="1" parent="1" source="Rp7mxz4orwssZvqJoNBO-49" target="Rp7mxz4orwssZvqJoNBO-65">
          <mxGeometry x="0.5" y="41" relative="1" as="geometry">
            <mxPoint x="1020" y="690" as="sourcePoint" />
            <mxPoint x="1030" y="570" as="targetPoint" />
            <mxPoint x="-40" y="32" as="offset" />
            <Array as="points">
              <mxPoint x="900" y="650" />
            </Array>
          </mxGeometry>
        </mxCell>
        <mxCell id="Rp7mxz4orwssZvqJoNBO-70" value="&lt;&lt;Loading&gt;&gt;" style="swimlane;fontStyle=1;align=center;verticalAlign=top;childLayout=stackLayout;horizontal=1;startSize=26;horizontalStack=0;resizeParent=1;resizeLast=0;collapsible=1;marginBottom=0;rounded=0;shadow=0;strokeWidth=1;" vertex="1" parent="1">
          <mxGeometry x="835" y="945.58" width="170" height="112" as="geometry">
            <mxRectangle x="550" y="140" width="160" height="26" as="alternateBounds" />
          </mxGeometry>
        </mxCell>
        <mxCell id="Rp7mxz4orwssZvqJoNBO-71" value="" style="line;html=1;strokeWidth=1;align=left;verticalAlign=middle;spacingTop=-1;spacingLeft=3;spacingRight=3;rotatable=0;labelPosition=right;points=[];portConstraint=eastwest;" vertex="1" parent="Rp7mxz4orwssZvqJoNBO-70">
          <mxGeometry y="26" width="170" height="8" as="geometry" />
        </mxCell>
        <mxCell id="Rp7mxz4orwssZvqJoNBO-72" value="~ loadCargo() : void" style="text;align=left;verticalAlign=top;spacingLeft=4;spacingRight=4;overflow=hidden;rotatable=0;points=[[0,0.5],[1,0.5]];portConstraint=eastwest;" vertex="1" parent="Rp7mxz4orwssZvqJoNBO-70">
          <mxGeometry y="34" width="170" height="26" as="geometry" />
        </mxCell>
        <mxCell id="Rp7mxz4orwssZvqJoNBO-73" value="+ offLoadCargo() : Car" style="text;align=left;verticalAlign=top;spacingLeft=4;spacingRight=4;overflow=hidden;rotatable=0;points=[[0,0.5],[1,0.5]];portConstraint=eastwest;" vertex="1" parent="Rp7mxz4orwssZvqJoNBO-70">
          <mxGeometry y="60" width="170" height="26" as="geometry" />
        </mxCell>
        <mxCell id="Rp7mxz4orwssZvqJoNBO-74" value="+ getPoint() : Point2D" style="text;align=left;verticalAlign=top;spacingLeft=4;spacingRight=4;overflow=hidden;rotatable=0;points=[[0,0.5],[1,0.5]];portConstraint=eastwest;" vertex="1" parent="Rp7mxz4orwssZvqJoNBO-70">
          <mxGeometry y="86" width="170" height="26" as="geometry" />
        </mxCell>
        <mxCell id="Rp7mxz4orwssZvqJoNBO-75" value="" style="endArrow=block;dashed=1;endFill=0;endSize=12;html=1;rounded=0;exitX=0.5;exitY=0;exitDx=0;exitDy=0;" edge="1" parent="1" source="Rp7mxz4orwssZvqJoNBO-70" target="Rp7mxz4orwssZvqJoNBO-63">
          <mxGeometry width="160" relative="1" as="geometry">
            <mxPoint x="830" y="860" as="sourcePoint" />
            <mxPoint x="990" y="860" as="targetPoint" />
            <Array as="points" />
          </mxGeometry>
        </mxCell>
        <mxCell id="Rp7mxz4orwssZvqJoNBO-76" value="" style="endArrow=block;dashed=1;endFill=0;endSize=12;html=1;rounded=0;entryX=1;entryY=0.5;entryDx=0;entryDy=0;exitX=0;exitY=0.5;exitDx=0;exitDy=0;" edge="1" parent="1" source="Rp7mxz4orwssZvqJoNBO-72" target="Rp7mxz4orwssZvqJoNBO-50">
          <mxGeometry width="160" relative="1" as="geometry">
            <mxPoint x="840" y="1026" as="sourcePoint" />
            <mxPoint x="810" y="870" as="targetPoint" />
          </mxGeometry>
        </mxCell>
        <mxCell id="Rp7mxz4orwssZvqJoNBO-77" value="&lt;&lt;Movable&gt;&gt;" style="swimlane;fontStyle=1;align=center;verticalAlign=top;childLayout=stackLayout;horizontal=1;startSize=26;horizontalStack=0;resizeParent=1;resizeLast=0;collapsible=1;marginBottom=0;rounded=0;shadow=0;strokeWidth=1;" vertex="1" parent="1">
          <mxGeometry x="452" y="180" width="170" height="112" as="geometry">
            <mxRectangle x="550" y="140" width="160" height="26" as="alternateBounds" />
          </mxGeometry>
        </mxCell>
        <mxCell id="Rp7mxz4orwssZvqJoNBO-78" value="" style="line;html=1;strokeWidth=1;align=left;verticalAlign=middle;spacingTop=-1;spacingLeft=3;spacingRight=3;rotatable=0;labelPosition=right;points=[];portConstraint=eastwest;" vertex="1" parent="Rp7mxz4orwssZvqJoNBO-77">
          <mxGeometry y="26" width="170" height="8" as="geometry" />
        </mxCell>
        <mxCell id="Rp7mxz4orwssZvqJoNBO-79" value="~ move() : void" style="text;align=left;verticalAlign=top;spacingLeft=4;spacingRight=4;overflow=hidden;rotatable=0;points=[[0,0.5],[1,0.5]];portConstraint=eastwest;" vertex="1" parent="Rp7mxz4orwssZvqJoNBO-77">
          <mxGeometry y="34" width="170" height="26" as="geometry" />
        </mxCell>
        <mxCell id="Rp7mxz4orwssZvqJoNBO-80" value="~ turnLeft() : void" style="text;align=left;verticalAlign=top;spacingLeft=4;spacingRight=4;overflow=hidden;rotatable=0;points=[[0,0.5],[1,0.5]];portConstraint=eastwest;" vertex="1" parent="Rp7mxz4orwssZvqJoNBO-77">
          <mxGeometry y="60" width="170" height="26" as="geometry" />
        </mxCell>
        <mxCell id="Rp7mxz4orwssZvqJoNBO-81" value="~ turnRight() : void" style="text;align=left;verticalAlign=top;spacingLeft=4;spacingRight=4;overflow=hidden;rotatable=0;points=[[0,0.5],[1,0.5]];portConstraint=eastwest;" vertex="1" parent="Rp7mxz4orwssZvqJoNBO-77">
          <mxGeometry y="86" width="170" height="26" as="geometry" />
        </mxCell>
        <mxCell id="Rp7mxz4orwssZvqJoNBO-82" value="" style="endArrow=block;dashed=1;endFill=0;endSize=12;html=1;rounded=0;exitX=0;exitY=0.5;exitDx=0;exitDy=0;entryX=1;entryY=0.5;entryDx=0;entryDy=0;" edge="1" parent="1" source="Rp7mxz4orwssZvqJoNBO-79" target="Rp7mxz4orwssZvqJoNBO-8">
          <mxGeometry width="160" relative="1" as="geometry">
            <mxPoint x="547" y="196" as="sourcePoint" />
            <mxPoint x="450" y="120" as="targetPoint" />
          </mxGeometry>
        </mxCell>
        <mxCell id="Rp7mxz4orwssZvqJoNBO-83" value="Model" style="swimlane;fontStyle=1;align=center;verticalAlign=top;childLayout=stackLayout;horizontal=1;startSize=30;horizontalStack=0;resizeParent=1;resizeLast=0;collapsible=1;marginBottom=0;rounded=0;shadow=0;strokeWidth=1;" vertex="1" parent="1">
          <mxGeometry x="1292" y="20" width="160" height="698" as="geometry">
            <mxRectangle x="230" y="140" width="160" height="26" as="alternateBounds" />
          </mxGeometry>
        </mxCell>
        <mxCell id="Rp7mxz4orwssZvqJoNBO-84" value="- delay : int" style="text;align=left;verticalAlign=top;spacingLeft=4;spacingRight=4;overflow=hidden;rotatable=0;points=[[0,0.5],[1,0.5]];portConstraint=eastwest;fontStyle=0" vertex="1" parent="Rp7mxz4orwssZvqJoNBO-83">
          <mxGeometry y="30" width="160" height="26" as="geometry" />
        </mxCell>
        <mxCell id="Rp7mxz4orwssZvqJoNBO-85" value="- timer : Timer" style="text;align=left;verticalAlign=top;spacingLeft=4;spacingRight=4;overflow=hidden;rotatable=0;points=[[0,0.5],[1,0.5]];portConstraint=eastwest;rounded=0;shadow=0;html=0;" vertex="1" parent="Rp7mxz4orwssZvqJoNBO-83">
          <mxGeometry y="56" width="160" height="26" as="geometry" />
        </mxCell>
        <mxCell id="Rp7mxz4orwssZvqJoNBO-86" value="~ frame : CarView" style="text;align=left;verticalAlign=top;spacingLeft=4;spacingRight=4;overflow=hidden;rotatable=0;points=[[0,0.5],[1,0.5]];portConstraint=eastwest;rounded=0;shadow=0;html=0;" vertex="1" parent="Rp7mxz4orwssZvqJoNBO-83">
          <mxGeometry y="82" width="160" height="26" as="geometry" />
        </mxCell>
        <mxCell id="Rp7mxz4orwssZvqJoNBO-87" value="~ cars : ArrayList&lt;Car&gt;&#xa;&#xa;observer : Observer&#xa;&#xa;workshop : &#xa;Workshop&lt;Volvo240&gt;&#xa;&#xa;volvo : Volvo240&#xa;&#xa;saab : Saab95&#xa;&#xa;scania : Scania" style="text;align=left;verticalAlign=top;spacingLeft=4;spacingRight=4;overflow=hidden;rotatable=0;points=[[0,0.5],[1,0.5]];portConstraint=eastwest;rounded=0;shadow=0;html=0;fontStyle=0" vertex="1" parent="Rp7mxz4orwssZvqJoNBO-83">
          <mxGeometry y="108" width="160" height="202" as="geometry" />
        </mxCell>
        <mxCell id="Rp7mxz4orwssZvqJoNBO-88" value="" style="line;html=1;strokeWidth=1;align=left;verticalAlign=middle;spacingTop=-1;spacingLeft=3;spacingRight=3;rotatable=0;labelPosition=right;points=[];portConstraint=eastwest;" vertex="1" parent="Rp7mxz4orwssZvqJoNBO-83">
          <mxGeometry y="310" width="160" height="46" as="geometry" />
        </mxCell>
        <mxCell id="Rp7mxz4orwssZvqJoNBO-186" value="+ Model()" style="text;html=1;align=center;verticalAlign=middle;resizable=0;points=[];autosize=1;strokeColor=none;fillColor=none;" vertex="1" parent="Rp7mxz4orwssZvqJoNBO-83">
          <mxGeometry y="356" width="160" height="30" as="geometry" />
        </mxCell>
        <mxCell id="Rp7mxz4orwssZvqJoNBO-89" value="+ actionPerformed() : void&#xa;" style="text;align=left;verticalAlign=top;spacingLeft=4;spacingRight=4;overflow=hidden;rotatable=0;points=[[0,0.5],[1,0.5]];portConstraint=eastwest;rounded=0;shadow=0;html=0;fontStyle=0" vertex="1" parent="Rp7mxz4orwssZvqJoNBO-83">
          <mxGeometry y="386" width="160" height="26" as="geometry" />
        </mxCell>
        <mxCell id="Rp7mxz4orwssZvqJoNBO-90" value="~ gas() : void" style="text;align=left;verticalAlign=top;spacingLeft=4;spacingRight=4;overflow=hidden;rotatable=0;points=[[0,0.5],[1,0.5]];portConstraint=eastwest;rounded=0;shadow=0;html=0;fontStyle=0" vertex="1" parent="Rp7mxz4orwssZvqJoNBO-83">
          <mxGeometry y="412" width="160" height="26" as="geometry" />
        </mxCell>
        <mxCell id="Rp7mxz4orwssZvqJoNBO-91" value="~ brake() : void" style="text;align=left;verticalAlign=top;spacingLeft=4;spacingRight=4;overflow=hidden;rotatable=0;points=[[0,0.5],[1,0.5]];portConstraint=eastwest;rounded=0;shadow=0;html=0;fontStyle=0" vertex="1" parent="Rp7mxz4orwssZvqJoNBO-83">
          <mxGeometry y="438" width="160" height="26" as="geometry" />
        </mxCell>
        <mxCell id="Rp7mxz4orwssZvqJoNBO-92" value="~ stop() : void" style="text;align=left;verticalAlign=top;spacingLeft=4;spacingRight=4;overflow=hidden;rotatable=0;points=[[0,0.5],[1,0.5]];portConstraint=eastwest;rounded=0;shadow=0;html=0;fontStyle=0" vertex="1" parent="Rp7mxz4orwssZvqJoNBO-83">
          <mxGeometry y="464" width="160" height="26" as="geometry" />
        </mxCell>
        <mxCell id="Rp7mxz4orwssZvqJoNBO-93" value="~ start() : void" style="text;align=left;verticalAlign=top;spacingLeft=4;spacingRight=4;overflow=hidden;rotatable=0;points=[[0,0.5],[1,0.5]];portConstraint=eastwest;rounded=0;shadow=0;html=0;fontStyle=0" vertex="1" parent="Rp7mxz4orwssZvqJoNBO-83">
          <mxGeometry y="490" width="160" height="26" as="geometry" />
        </mxCell>
        <mxCell id="Rp7mxz4orwssZvqJoNBO-94" value="~ turboOn() : void" style="text;align=left;verticalAlign=top;spacingLeft=4;spacingRight=4;overflow=hidden;rotatable=0;points=[[0,0.5],[1,0.5]];portConstraint=eastwest;rounded=0;shadow=0;html=0;fontStyle=0" vertex="1" parent="Rp7mxz4orwssZvqJoNBO-83">
          <mxGeometry y="516" width="160" height="26" as="geometry" />
        </mxCell>
        <mxCell id="Rp7mxz4orwssZvqJoNBO-95" value="~ turboOff() : void" style="text;align=left;verticalAlign=top;spacingLeft=4;spacingRight=4;overflow=hidden;rotatable=0;points=[[0,0.5],[1,0.5]];portConstraint=eastwest;rounded=0;shadow=0;html=0;fontStyle=0" vertex="1" parent="Rp7mxz4orwssZvqJoNBO-83">
          <mxGeometry y="542" width="160" height="26" as="geometry" />
        </mxCell>
        <mxCell id="Rp7mxz4orwssZvqJoNBO-96" value="~ liftBed() : void" style="text;align=left;verticalAlign=top;spacingLeft=4;spacingRight=4;overflow=hidden;rotatable=0;points=[[0,0.5],[1,0.5]];portConstraint=eastwest;rounded=0;shadow=0;html=0;fontStyle=0" vertex="1" parent="Rp7mxz4orwssZvqJoNBO-83">
          <mxGeometry y="568" width="160" height="26" as="geometry" />
        </mxCell>
        <mxCell id="Rp7mxz4orwssZvqJoNBO-97" value="~ lowerBed() : void" style="text;align=left;verticalAlign=top;spacingLeft=4;spacingRight=4;overflow=hidden;rotatable=0;points=[[0,0.5],[1,0.5]];portConstraint=eastwest;rounded=0;shadow=0;html=0;fontStyle=0" vertex="1" parent="Rp7mxz4orwssZvqJoNBO-83">
          <mxGeometry y="594" width="160" height="26" as="geometry" />
        </mxCell>
        <mxCell id="Rp7mxz4orwssZvqJoNBO-187" value="+ checkwalls : boolean" style="text;align=left;verticalAlign=top;spacingLeft=4;spacingRight=4;overflow=hidden;rotatable=0;points=[[0,0.5],[1,0.5]];portConstraint=eastwest;rounded=0;shadow=0;html=0;fontStyle=0" vertex="1" parent="Rp7mxz4orwssZvqJoNBO-83">
          <mxGeometry y="620" width="160" height="26" as="geometry" />
        </mxCell>
        <mxCell id="Rp7mxz4orwssZvqJoNBO-188" value="+ checkworkshop : boolean" style="text;align=left;verticalAlign=top;spacingLeft=4;spacingRight=4;overflow=hidden;rotatable=0;points=[[0,0.5],[1,0.5]];portConstraint=eastwest;rounded=0;shadow=0;html=0;fontStyle=0" vertex="1" parent="Rp7mxz4orwssZvqJoNBO-83">
          <mxGeometry y="646" width="160" height="26" as="geometry" />
        </mxCell>
        <mxCell id="Rp7mxz4orwssZvqJoNBO-192" value="+ setObserver() : void" style="text;align=left;verticalAlign=top;spacingLeft=4;spacingRight=4;overflow=hidden;rotatable=0;points=[[0,0.5],[1,0.5]];portConstraint=eastwest;rounded=0;shadow=0;html=0;fontStyle=0" vertex="1" parent="Rp7mxz4orwssZvqJoNBO-83">
          <mxGeometry y="672" width="160" height="26" as="geometry" />
        </mxCell>
        <mxCell id="Rp7mxz4orwssZvqJoNBO-98" value="" style="endArrow=block;endSize=10;endFill=0;shadow=0;strokeWidth=1;rounded=0;edgeStyle=elbowEdgeStyle;elbow=vertical;exitX=0.5;exitY=0;exitDx=0;exitDy=0;entryX=0.5;entryY=1;entryDx=0;entryDy=0;" edge="1" parent="1" source="Rp7mxz4orwssZvqJoNBO-49" target="Rp7mxz4orwssZvqJoNBO-38">
          <mxGeometry width="160" relative="1" as="geometry">
            <mxPoint x="560" y="985.58" as="sourcePoint" />
            <mxPoint x="601.9200000000001" y="899.996" as="targetPoint" />
            <Array as="points">
              <mxPoint x="660" y="912" />
            </Array>
          </mxGeometry>
        </mxCell>
        <mxCell id="Rp7mxz4orwssZvqJoNBO-99" value="" style="endArrow=block;endSize=10;endFill=0;shadow=0;strokeWidth=1;rounded=0;edgeStyle=elbowEdgeStyle;elbow=vertical;exitX=0.5;exitY=0;exitDx=0;exitDy=0;entryX=0.5;entryY=1;entryDx=0;entryDy=0;" edge="1" parent="1" source="Rp7mxz4orwssZvqJoNBO-46" target="Rp7mxz4orwssZvqJoNBO-38">
          <mxGeometry width="160" relative="1" as="geometry">
            <mxPoint x="730" y="955.58" as="sourcePoint" />
            <mxPoint x="601.9200000000001" y="899.996" as="targetPoint" />
            <Array as="points">
              <mxPoint x="580" y="910" />
            </Array>
          </mxGeometry>
        </mxCell>
        <mxCell id="Rp7mxz4orwssZvqJoNBO-100" value="TimerListener" style="swimlane;fontStyle=1;align=center;verticalAlign=top;childLayout=stackLayout;horizontal=1;startSize=26;horizontalStack=0;resizeParent=1;resizeLast=0;collapsible=1;marginBottom=0;rounded=0;shadow=0;strokeWidth=1;" vertex="1" parent="1">
          <mxGeometry x="1062" y="120" width="170" height="70" as="geometry">
            <mxRectangle x="550" y="140" width="160" height="26" as="alternateBounds" />
          </mxGeometry>
        </mxCell>
        <mxCell id="Rp7mxz4orwssZvqJoNBO-101" value="" style="line;html=1;strokeWidth=1;align=left;verticalAlign=middle;spacingTop=-1;spacingLeft=3;spacingRight=3;rotatable=0;labelPosition=right;points=[];portConstraint=eastwest;" vertex="1" parent="Rp7mxz4orwssZvqJoNBO-100">
          <mxGeometry y="26" width="170" height="8" as="geometry" />
        </mxCell>
        <mxCell id="Rp7mxz4orwssZvqJoNBO-102" value="+ actionPerformed() : void" style="text;align=left;verticalAlign=top;spacingLeft=4;spacingRight=4;overflow=hidden;rotatable=0;points=[[0,0.5],[1,0.5]];portConstraint=eastwest;" vertex="1" parent="Rp7mxz4orwssZvqJoNBO-100">
          <mxGeometry y="34" width="170" height="26" as="geometry" />
        </mxCell>
        <mxCell id="Rp7mxz4orwssZvqJoNBO-103" value="" style="endArrow=open;startArrow=circlePlus;endFill=0;startFill=0;endSize=8;html=1;rounded=0;entryX=1;entryY=0.25;entryDx=0;entryDy=0;exitX=0;exitY=0.5;exitDx=0;exitDy=0;" edge="1" parent="1" source="Rp7mxz4orwssZvqJoNBO-86" target="Rp7mxz4orwssZvqJoNBO-100">
          <mxGeometry width="160" relative="1" as="geometry">
            <mxPoint x="1312" y="450" as="sourcePoint" />
            <mxPoint x="1292" y="450" as="targetPoint" />
          </mxGeometry>
        </mxCell>
        <mxCell id="Rp7mxz4orwssZvqJoNBO-104" value="Â«interfaceÂ»&lt;br&gt;&lt;b&gt;ActionListener&lt;/b&gt;" style="html=1;whiteSpace=wrap;" vertex="1" parent="1">
          <mxGeometry x="1092" y="20" width="110" height="50" as="geometry" />
        </mxCell>
        <mxCell id="Rp7mxz4orwssZvqJoNBO-105" value="" style="endArrow=block;dashed=1;endFill=0;endSize=12;html=1;rounded=0;exitX=0.5;exitY=1;exitDx=0;exitDy=0;entryX=0.5;entryY=0;entryDx=0;entryDy=0;" edge="1" parent="1" source="Rp7mxz4orwssZvqJoNBO-104" target="Rp7mxz4orwssZvqJoNBO-100">
          <mxGeometry width="160" relative="1" as="geometry">
            <mxPoint x="1122" y="346" as="sourcePoint" />
            <mxPoint x="1122" y="280" as="targetPoint" />
            <Array as="points" />
          </mxGeometry>
        </mxCell>
        <mxCell id="Rp7mxz4orwssZvqJoNBO-106" value="WidgetManager" style="swimlane;fontStyle=1;align=center;verticalAlign=top;childLayout=stackLayout;horizontal=1;startSize=30;horizontalStack=0;resizeParent=1;resizeLast=0;collapsible=1;marginBottom=0;rounded=0;shadow=0;strokeWidth=1;" vertex="1" parent="1">
          <mxGeometry x="1492" y="20" width="170" height="590" as="geometry">
            <mxRectangle x="230" y="140" width="160" height="26" as="alternateBounds" />
          </mxGeometry>
        </mxCell>
        <mxCell id="Rp7mxz4orwssZvqJoNBO-107" value="+ X : int" style="text;align=left;verticalAlign=top;spacingLeft=4;spacingRight=4;overflow=hidden;rotatable=0;points=[[0,0.5],[1,0.5]];portConstraint=eastwest;fontStyle=4" vertex="1" parent="Rp7mxz4orwssZvqJoNBO-106">
          <mxGeometry y="30" width="170" height="26" as="geometry" />
        </mxCell>
        <mxCell id="Rp7mxz4orwssZvqJoNBO-108" value="- Y : int" style="text;align=left;verticalAlign=top;spacingLeft=4;spacingRight=4;overflow=hidden;rotatable=0;points=[[0,0.5],[1,0.5]];portConstraint=eastwest;rounded=0;shadow=0;html=0;fontStyle=4" vertex="1" parent="Rp7mxz4orwssZvqJoNBO-106">
          <mxGeometry y="56" width="170" height="26" as="geometry" />
        </mxCell>
        <mxCell id="Rp7mxz4orwssZvqJoNBO-110" value="~Â drawPanel : View" style="text;align=left;verticalAlign=top;spacingLeft=4;spacingRight=4;overflow=hidden;rotatable=0;points=[[0,0.5],[1,0.5]];portConstraint=eastwest;rounded=0;shadow=0;html=0;" vertex="1" parent="Rp7mxz4orwssZvqJoNBO-106">
          <mxGeometry y="82" width="170" height="26" as="geometry" />
        </mxCell>
        <mxCell id="Rp7mxz4orwssZvqJoNBO-111" value="~ controlPanel : JPanel" style="text;align=left;verticalAlign=top;spacingLeft=4;spacingRight=4;overflow=hidden;rotatable=0;points=[[0,0.5],[1,0.5]];portConstraint=eastwest;rounded=0;shadow=0;html=0;fontStyle=0" vertex="1" parent="Rp7mxz4orwssZvqJoNBO-106">
          <mxGeometry y="108" width="170" height="26" as="geometry" />
        </mxCell>
        <mxCell id="Rp7mxz4orwssZvqJoNBO-112" value="~ gasPanel : Jpanel" style="text;align=left;verticalAlign=top;spacingLeft=4;spacingRight=4;overflow=hidden;rotatable=0;points=[[0,0.5],[1,0.5]];portConstraint=eastwest;rounded=0;shadow=0;html=0;fontStyle=0" vertex="1" parent="Rp7mxz4orwssZvqJoNBO-106">
          <mxGeometry y="134" width="170" height="26" as="geometry" />
        </mxCell>
        <mxCell id="Rp7mxz4orwssZvqJoNBO-113" value="~ gasSpinner : JSpinner" style="text;align=left;verticalAlign=top;spacingLeft=4;spacingRight=4;overflow=hidden;rotatable=0;points=[[0,0.5],[1,0.5]];portConstraint=eastwest;rounded=0;shadow=0;html=0;fontStyle=0" vertex="1" parent="Rp7mxz4orwssZvqJoNBO-106">
          <mxGeometry y="160" width="170" height="26" as="geometry" />
        </mxCell>
        <mxCell id="Rp7mxz4orwssZvqJoNBO-114" value="~ gasAmount : int" style="text;align=left;verticalAlign=top;spacingLeft=4;spacingRight=4;overflow=hidden;rotatable=0;points=[[0,0.5],[1,0.5]];portConstraint=eastwest;rounded=0;shadow=0;html=0;fontStyle=0" vertex="1" parent="Rp7mxz4orwssZvqJoNBO-106">
          <mxGeometry y="186" width="170" height="26" as="geometry" />
        </mxCell>
        <mxCell id="Rp7mxz4orwssZvqJoNBO-115" value="~ brakeAmount : int" style="text;align=left;verticalAlign=top;spacingLeft=4;spacingRight=4;overflow=hidden;rotatable=0;points=[[0,0.5],[1,0.5]];portConstraint=eastwest;rounded=0;shadow=0;html=0;fontStyle=0" vertex="1" parent="Rp7mxz4orwssZvqJoNBO-106">
          <mxGeometry y="212" width="170" height="26" as="geometry" />
        </mxCell>
        <mxCell id="Rp7mxz4orwssZvqJoNBO-116" value="~ gasLabel: JLabel" style="text;align=left;verticalAlign=top;spacingLeft=4;spacingRight=4;overflow=hidden;rotatable=0;points=[[0,0.5],[1,0.5]];portConstraint=eastwest;rounded=0;shadow=0;html=0;fontStyle=0" vertex="1" parent="Rp7mxz4orwssZvqJoNBO-106">
          <mxGeometry y="238" width="170" height="26" as="geometry" />
        </mxCell>
        <mxCell id="Rp7mxz4orwssZvqJoNBO-117" value="~ gasButton : JButton" style="text;align=left;verticalAlign=top;spacingLeft=4;spacingRight=4;overflow=hidden;rotatable=0;points=[[0,0.5],[1,0.5]];portConstraint=eastwest;rounded=0;shadow=0;html=0;fontStyle=0" vertex="1" parent="Rp7mxz4orwssZvqJoNBO-106">
          <mxGeometry y="264" width="170" height="26" as="geometry" />
        </mxCell>
        <mxCell id="Rp7mxz4orwssZvqJoNBO-118" value="~ brakeButton: JButton" style="text;align=left;verticalAlign=top;spacingLeft=4;spacingRight=4;overflow=hidden;rotatable=0;points=[[0,0.5],[1,0.5]];portConstraint=eastwest;rounded=0;shadow=0;html=0;fontStyle=0" vertex="1" parent="Rp7mxz4orwssZvqJoNBO-106">
          <mxGeometry y="290" width="170" height="26" as="geometry" />
        </mxCell>
        <mxCell id="Rp7mxz4orwssZvqJoNBO-119" value="~ turboOnButton : JButton" style="text;align=left;verticalAlign=top;spacingLeft=4;spacingRight=4;overflow=hidden;rotatable=0;points=[[0,0.5],[1,0.5]];portConstraint=eastwest;rounded=0;shadow=0;html=0;fontStyle=0" vertex="1" parent="Rp7mxz4orwssZvqJoNBO-106">
          <mxGeometry y="316" width="170" height="26" as="geometry" />
        </mxCell>
        <mxCell id="Rp7mxz4orwssZvqJoNBO-120" value="~ turboOffButton: JButton" style="text;align=left;verticalAlign=top;spacingLeft=4;spacingRight=4;overflow=hidden;rotatable=0;points=[[0,0.5],[1,0.5]];portConstraint=eastwest;rounded=0;shadow=0;html=0;fontStyle=0" vertex="1" parent="Rp7mxz4orwssZvqJoNBO-106">
          <mxGeometry y="342" width="170" height="26" as="geometry" />
        </mxCell>
        <mxCell id="Rp7mxz4orwssZvqJoNBO-121" value="~ liftBedButton : JButton" style="text;align=left;verticalAlign=top;spacingLeft=4;spacingRight=4;overflow=hidden;rotatable=0;points=[[0,0.5],[1,0.5]];portConstraint=eastwest;rounded=0;shadow=0;html=0;fontStyle=0" vertex="1" parent="Rp7mxz4orwssZvqJoNBO-106">
          <mxGeometry y="368" width="170" height="26" as="geometry" />
        </mxCell>
        <mxCell id="Rp7mxz4orwssZvqJoNBO-122" value="~ lowerBedButton : JButton" style="text;align=left;verticalAlign=top;spacingLeft=4;spacingRight=4;overflow=hidden;rotatable=0;points=[[0,0.5],[1,0.5]];portConstraint=eastwest;rounded=0;shadow=0;html=0;fontStyle=0" vertex="1" parent="Rp7mxz4orwssZvqJoNBO-106">
          <mxGeometry y="394" width="170" height="26" as="geometry" />
        </mxCell>
        <mxCell id="Rp7mxz4orwssZvqJoNBO-123" value="~ startButton : JButton" style="text;align=left;verticalAlign=top;spacingLeft=4;spacingRight=4;overflow=hidden;rotatable=0;points=[[0,0.5],[1,0.5]];portConstraint=eastwest;rounded=0;shadow=0;html=0;fontStyle=0" vertex="1" parent="Rp7mxz4orwssZvqJoNBO-106">
          <mxGeometry y="420" width="170" height="26" as="geometry" />
        </mxCell>
        <mxCell id="Rp7mxz4orwssZvqJoNBO-124" value="~ stopButton : JButton" style="text;align=left;verticalAlign=top;spacingLeft=4;spacingRight=4;overflow=hidden;rotatable=0;points=[[0,0.5],[1,0.5]];portConstraint=eastwest;rounded=0;shadow=0;html=0;fontStyle=0" vertex="1" parent="Rp7mxz4orwssZvqJoNBO-106">
          <mxGeometry y="446" width="170" height="26" as="geometry" />
        </mxCell>
        <mxCell id="Rp7mxz4orwssZvqJoNBO-125" value="" style="line;html=1;strokeWidth=1;align=left;verticalAlign=middle;spacingTop=-1;spacingLeft=3;spacingRight=3;rotatable=0;labelPosition=right;points=[];portConstraint=eastwest;" vertex="1" parent="Rp7mxz4orwssZvqJoNBO-106">
          <mxGeometry y="472" width="170" height="8" as="geometry" />
        </mxCell>
        <mxCell id="Rp7mxz4orwssZvqJoNBO-126" value="+ initComponents() : void" style="text;align=left;verticalAlign=top;spacingLeft=4;spacingRight=4;overflow=hidden;rotatable=0;points=[[0,0.5],[1,0.5]];portConstraint=eastwest;rounded=0;shadow=0;html=0;fontStyle=0" vertex="1" parent="Rp7mxz4orwssZvqJoNBO-106">
          <mxGeometry y="480" width="170" height="26" as="geometry" />
        </mxCell>
        <mxCell id="Rp7mxz4orwssZvqJoNBO-128" value="+ actOnStatusChange() : void" style="text;align=left;verticalAlign=top;spacingLeft=4;spacingRight=4;overflow=hidden;rotatable=0;points=[[0,0.5],[1,0.5]];portConstraint=eastwest;rounded=0;shadow=0;html=0;fontStyle=0" vertex="1" parent="Rp7mxz4orwssZvqJoNBO-106">
          <mxGeometry y="506" width="170" height="26" as="geometry" />
        </mxCell>
        <mxCell id="Rp7mxz4orwssZvqJoNBO-129" value="View" style="swimlane;fontStyle=1;align=center;verticalAlign=top;childLayout=stackLayout;horizontal=1;startSize=30;horizontalStack=0;resizeParent=1;resizeLast=0;collapsible=1;marginBottom=0;rounded=0;shadow=0;strokeWidth=1;" vertex="1" parent="1">
          <mxGeometry x="1692" y="20" width="230" height="340" as="geometry">
            <mxRectangle x="230" y="140" width="160" height="26" as="alternateBounds" />
          </mxGeometry>
        </mxCell>
        <mxCell id="Rp7mxz4orwssZvqJoNBO-130" value="" style="line;html=1;strokeWidth=1;align=left;verticalAlign=middle;spacingTop=-1;spacingLeft=3;spacingRight=3;rotatable=0;labelPosition=right;points=[];portConstraint=eastwest;" vertex="1" parent="Rp7mxz4orwssZvqJoNBO-129">
          <mxGeometry y="30" width="230" height="8" as="geometry" />
        </mxCell>
        <mxCell id="Rp7mxz4orwssZvqJoNBO-131" value="+ View : void" style="text;align=left;verticalAlign=top;spacingLeft=4;spacingRight=4;overflow=hidden;rotatable=0;points=[[0,0.5],[1,0.5]];portConstraint=eastwest;rounded=0;shadow=0;html=0;fontStyle=0" vertex="1" parent="Rp7mxz4orwssZvqJoNBO-129">
          <mxGeometry y="38" width="230" height="26" as="geometry" />
        </mxCell>
        <mxCell id="Rp7mxz4orwssZvqJoNBO-132" value="+ paintComponent : void" style="text;align=left;verticalAlign=top;spacingLeft=4;spacingRight=4;overflow=hidden;rotatable=0;points=[[0,0.5],[1,0.5]];portConstraint=eastwest;rounded=0;shadow=0;html=0;fontStyle=0" vertex="1" parent="Rp7mxz4orwssZvqJoNBO-129">
          <mxGeometry y="64" width="230" height="26" as="geometry" />
        </mxCell>
        <mxCell id="Rp7mxz4orwssZvqJoNBO-133" value="&lt;p style=&quot;margin:0px;margin-top:4px;text-align:center;&quot;&gt;ArrayList&lt;/p&gt;&lt;hr size=&quot;1&quot;&gt;&lt;div style=&quot;height:2px;&quot;&gt;&lt;/div&gt;" style="verticalAlign=top;align=left;overflow=fill;fontSize=12;fontFamily=Helvetica;html=1;whiteSpace=wrap;" vertex="1" parent="1">
          <mxGeometry x="990" y="-170" width="140" height="60" as="geometry" />
        </mxCell>
        <mxCell id="Rp7mxz4orwssZvqJoNBO-134" value="&lt;p style=&quot;margin:0px;margin-top:4px;text-align:center;&quot;&gt;Stack&lt;/p&gt;&lt;hr size=&quot;1&quot;&gt;&lt;div style=&quot;height:2px;&quot;&gt;&lt;/div&gt;" style="verticalAlign=top;align=left;overflow=fill;fontSize=12;fontFamily=Helvetica;html=1;whiteSpace=wrap;" vertex="1" parent="1">
          <mxGeometry x="795" y="-170" width="140" height="60" as="geometry" />
        </mxCell>
        <mxCell id="Rp7mxz4orwssZvqJoNBO-135" value="&lt;p style=&quot;margin:0px;margin-top:4px;text-align:center;&quot;&gt;JFrame&lt;/p&gt;&lt;hr size=&quot;1&quot;&gt;&lt;div style=&quot;height:2px;&quot;&gt;&lt;/div&gt;" style="verticalAlign=top;align=left;overflow=fill;fontSize=12;fontFamily=Helvetica;html=1;whiteSpace=wrap;" vertex="1" parent="1">
          <mxGeometry x="1171" y="-170" width="140" height="60" as="geometry" />
        </mxCell>
        <mxCell id="Rp7mxz4orwssZvqJoNBO-136" value="&lt;p style=&quot;margin:0px;margin-top:4px;text-align:center;&quot;&gt;JButton&lt;/p&gt;&lt;hr size=&quot;1&quot;&gt;&lt;div style=&quot;height:2px;&quot;&gt;&lt;/div&gt;" style="verticalAlign=top;align=left;overflow=fill;fontSize=12;fontFamily=Helvetica;html=1;whiteSpace=wrap;" vertex="1" parent="1">
          <mxGeometry x="1350" y="-170" width="140" height="60" as="geometry" />
        </mxCell>
        <mxCell id="Rp7mxz4orwssZvqJoNBO-137" value="&lt;p style=&quot;margin:0px;margin-top:4px;text-align:center;&quot;&gt;JLabel&lt;/p&gt;&lt;hr size=&quot;1&quot;&gt;&lt;div style=&quot;height:2px;&quot;&gt;&lt;/div&gt;" style="verticalAlign=top;align=left;overflow=fill;fontSize=12;fontFamily=Helvetica;html=1;whiteSpace=wrap;" vertex="1" parent="1">
          <mxGeometry x="1530" y="-170" width="140" height="60" as="geometry" />
        </mxCell>
        <mxCell id="Rp7mxz4orwssZvqJoNBO-138" value="&lt;p style=&quot;margin:0px;margin-top:4px;text-align:center;&quot;&gt;JSpinner&lt;/p&gt;&lt;hr size=&quot;1&quot;&gt;&lt;div style=&quot;height:2px;&quot;&gt;&lt;/div&gt;" style="verticalAlign=top;align=left;overflow=fill;fontSize=12;fontFamily=Helvetica;html=1;whiteSpace=wrap;" vertex="1" parent="1">
          <mxGeometry x="1700" y="-170" width="140" height="60" as="geometry" />
        </mxCell>
        <mxCell id="Rp7mxz4orwssZvqJoNBO-139" value="" style="endArrow=block;endSize=10;endFill=0;shadow=0;strokeWidth=1;rounded=0;edgeStyle=elbowEdgeStyle;elbow=vertical;exitX=0.5;exitY=0;exitDx=0;exitDy=0;entryX=0.5;entryY=1;entryDx=0;entryDy=0;" edge="1" parent="1" target="Rp7mxz4orwssZvqJoNBO-135">
          <mxGeometry width="160" relative="1" as="geometry">
            <mxPoint x="1570" y="20" as="sourcePoint" />
            <mxPoint x="1270" y="-130" as="targetPoint" />
          </mxGeometry>
        </mxCell>
        <mxCell id="Rp7mxz4orwssZvqJoNBO-140" value="&lt;p style=&quot;margin:0px;margin-top:4px;text-align:center;&quot;&gt;Point2D&lt;/p&gt;&lt;hr size=&quot;1&quot;&gt;&lt;div style=&quot;height:2px;&quot;&gt;&lt;/div&gt;" style="verticalAlign=top;align=left;overflow=fill;fontSize=12;fontFamily=Helvetica;html=1;whiteSpace=wrap;" vertex="1" parent="1">
          <mxGeometry x="610" y="-170" width="140" height="60" as="geometry" />
        </mxCell>
        <mxCell id="Rp7mxz4orwssZvqJoNBO-141" value="&lt;p style=&quot;margin:0px;margin-top:4px;text-align:center;&quot;&gt;Point&lt;/p&gt;&lt;hr size=&quot;1&quot;&gt;&lt;div style=&quot;height:2px;&quot;&gt;&lt;/div&gt;" style="verticalAlign=top;align=left;overflow=fill;fontSize=12;fontFamily=Helvetica;html=1;whiteSpace=wrap;" vertex="1" parent="1">
          <mxGeometry x="430" y="-170" width="140" height="60" as="geometry" />
        </mxCell>
        <mxCell id="Rp7mxz4orwssZvqJoNBO-142" value="&lt;p style=&quot;margin:0px;margin-top:4px;text-align:center;&quot;&gt;Color&lt;/p&gt;&lt;hr size=&quot;1&quot;&gt;&lt;div style=&quot;height:2px;&quot;&gt;&lt;/div&gt;" style="verticalAlign=top;align=left;overflow=fill;fontSize=12;fontFamily=Helvetica;html=1;whiteSpace=wrap;" vertex="1" parent="1">
          <mxGeometry x="250" y="-170" width="140" height="60" as="geometry" />
        </mxCell>
        <mxCell id="Rp7mxz4orwssZvqJoNBO-143" value="" style="endArrow=open;shadow=0;strokeWidth=1;rounded=0;endFill=1;edgeStyle=elbowEdgeStyle;elbow=vertical;exitX=0.25;exitY=0;exitDx=0;exitDy=0;entryX=0.5;entryY=1;entryDx=0;entryDy=0;" edge="1" parent="1" source="Rp7mxz4orwssZvqJoNBO-1" target="Rp7mxz4orwssZvqJoNBO-142">
          <mxGeometry x="0.5" y="41" relative="1" as="geometry">
            <mxPoint x="590" y="15" as="sourcePoint" />
            <mxPoint x="340" y="-90" as="targetPoint" />
            <mxPoint x="-40" y="32" as="offset" />
            <Array as="points">
              <mxPoint x="310" y="-40" />
            </Array>
          </mxGeometry>
        </mxCell>
        <mxCell id="Rp7mxz4orwssZvqJoNBO-144" value="" style="endArrow=open;shadow=0;strokeWidth=1;rounded=0;endFill=1;edgeStyle=elbowEdgeStyle;elbow=vertical;exitX=0.5;exitY=0;exitDx=0;exitDy=0;entryX=0.5;entryY=1;entryDx=0;entryDy=0;" edge="1" parent="1" source="Rp7mxz4orwssZvqJoNBO-1" target="Rp7mxz4orwssZvqJoNBO-141">
          <mxGeometry x="0.5" y="41" relative="1" as="geometry">
            <mxPoint x="354" y="20" as="sourcePoint" />
            <mxPoint x="414" y="-110" as="targetPoint" />
            <mxPoint x="-40" y="32" as="offset" />
            <Array as="points">
              <mxPoint x="404" y="-40" />
            </Array>
          </mxGeometry>
        </mxCell>
        <mxCell id="Rp7mxz4orwssZvqJoNBO-145" value="" style="endArrow=open;shadow=0;strokeWidth=1;rounded=0;endFill=1;edgeStyle=elbowEdgeStyle;elbow=vertical;exitX=0.75;exitY=0;exitDx=0;exitDy=0;entryX=0.5;entryY=1;entryDx=0;entryDy=0;" edge="1" parent="1" source="Rp7mxz4orwssZvqJoNBO-1" target="Rp7mxz4orwssZvqJoNBO-140">
          <mxGeometry x="0.5" y="41" relative="1" as="geometry">
            <mxPoint x="310" y="30" as="sourcePoint" />
            <mxPoint x="510" y="-100" as="targetPoint" />
            <mxPoint x="-40" y="32" as="offset" />
            <Array as="points">
              <mxPoint x="510" y="-40" />
            </Array>
          </mxGeometry>
        </mxCell>
        <mxCell id="Rp7mxz4orwssZvqJoNBO-146" value="&lt;p style=&quot;margin:0px;margin-top:4px;text-align:center;&quot;&gt;Timer&lt;/p&gt;&lt;hr size=&quot;1&quot;&gt;&lt;div style=&quot;height:2px;&quot;&gt;&lt;/div&gt;" style="verticalAlign=top;align=left;overflow=fill;fontSize=12;fontFamily=Helvetica;html=1;whiteSpace=wrap;" vertex="1" parent="1">
          <mxGeometry x="1261" y="-270" width="140" height="60" as="geometry" />
        </mxCell>
        <mxCell id="Rp7mxz4orwssZvqJoNBO-147" value="" style="endArrow=open;shadow=0;strokeWidth=1;rounded=0;endFill=1;edgeStyle=elbowEdgeStyle;elbow=vertical;exitX=0.5;exitY=0;exitDx=0;exitDy=0;entryX=0.5;entryY=1;entryDx=0;entryDy=0;" edge="1" parent="1" source="Rp7mxz4orwssZvqJoNBO-83" target="Rp7mxz4orwssZvqJoNBO-146">
          <mxGeometry x="0.5" y="41" relative="1" as="geometry">
            <mxPoint x="1600" y="20" as="sourcePoint" />
            <mxPoint x="1940" y="-110" as="targetPoint" />
            <mxPoint x="-40" y="32" as="offset" />
            <Array as="points">
              <mxPoint x="1350" y="-90" />
            </Array>
          </mxGeometry>
        </mxCell>
        <mxCell id="Rp7mxz4orwssZvqJoNBO-149" value="" style="endArrow=open;shadow=0;strokeWidth=1;rounded=0;endFill=1;edgeStyle=elbowEdgeStyle;elbow=vertical;exitX=0.25;exitY=0;exitDx=0;exitDy=0;entryX=0.5;entryY=1;entryDx=0;entryDy=0;" edge="1" parent="1" source="Rp7mxz4orwssZvqJoNBO-83" target="Rp7mxz4orwssZvqJoNBO-133">
          <mxGeometry x="0.5" y="41" relative="1" as="geometry">
            <mxPoint x="1382" y="30" as="sourcePoint" />
            <mxPoint x="1950" y="-100" as="targetPoint" />
            <mxPoint x="-40" y="32" as="offset" />
            <Array as="points">
              <mxPoint x="1150" y="-30" />
            </Array>
          </mxGeometry>
        </mxCell>
        <mxCell id="Rp7mxz4orwssZvqJoNBO-150" value="" style="endArrow=open;shadow=0;strokeWidth=1;rounded=0;endFill=1;edgeStyle=elbowEdgeStyle;elbow=vertical;exitX=0.5;exitY=0;exitDx=0;exitDy=0;entryX=0.5;entryY=1;entryDx=0;entryDy=0;" edge="1" parent="1" source="Rp7mxz4orwssZvqJoNBO-33" target="Rp7mxz4orwssZvqJoNBO-134">
          <mxGeometry x="0.5" y="41" relative="1" as="geometry">
            <mxPoint x="590" y="120" as="sourcePoint" />
            <mxPoint x="930" y="-10" as="targetPoint" />
            <mxPoint x="-40" y="32" as="offset" />
            <Array as="points">
              <mxPoint x="760" y="60" />
            </Array>
          </mxGeometry>
        </mxCell>
        <mxCell id="Rp7mxz4orwssZvqJoNBO-151" value="" style="endArrow=open;shadow=0;strokeWidth=1;rounded=0;endFill=1;edgeStyle=elbowEdgeStyle;elbow=vertical;exitX=0.75;exitY=0;exitDx=0;exitDy=0;entryX=0.5;entryY=1;entryDx=0;entryDy=0;" edge="1" parent="1" source="Rp7mxz4orwssZvqJoNBO-106" target="Rp7mxz4orwssZvqJoNBO-136">
          <mxGeometry x="0.5" y="41" relative="1" as="geometry">
            <mxPoint x="1708" as="sourcePoint" />
            <mxPoint x="1436" y="-130" as="targetPoint" />
            <mxPoint x="-40" y="32" as="offset" />
            <Array as="points">
              <mxPoint x="1520" y="-60" />
            </Array>
          </mxGeometry>
        </mxCell>
        <mxCell id="Rp7mxz4orwssZvqJoNBO-152" value="" style="endArrow=open;shadow=0;strokeWidth=1;rounded=0;endFill=1;edgeStyle=elbowEdgeStyle;elbow=vertical;entryX=0.5;entryY=1;entryDx=0;entryDy=0;exitX=0.75;exitY=0;exitDx=0;exitDy=0;" edge="1" parent="1" source="Rp7mxz4orwssZvqJoNBO-106" target="Rp7mxz4orwssZvqJoNBO-137">
          <mxGeometry x="0.5" y="41" relative="1" as="geometry">
            <mxPoint x="1610" y="20" as="sourcePoint" />
            <mxPoint x="1430" y="-100" as="targetPoint" />
            <mxPoint x="-40" y="32" as="offset" />
            <Array as="points">
              <mxPoint x="1612" y="-60" />
            </Array>
          </mxGeometry>
        </mxCell>
        <mxCell id="Rp7mxz4orwssZvqJoNBO-153" value="" style="endArrow=open;shadow=0;strokeWidth=1;rounded=0;endFill=1;edgeStyle=elbowEdgeStyle;elbow=vertical;entryX=0.5;entryY=1;entryDx=0;entryDy=0;exitX=0.75;exitY=0;exitDx=0;exitDy=0;" edge="1" parent="1" source="Rp7mxz4orwssZvqJoNBO-106" target="Rp7mxz4orwssZvqJoNBO-138">
          <mxGeometry x="0.5" y="41" relative="1" as="geometry">
            <mxPoint x="1622" y="30" as="sourcePoint" />
            <mxPoint x="1610" y="-100" as="targetPoint" />
            <mxPoint x="-40" y="32" as="offset" />
            <Array as="points">
              <mxPoint x="1690" y="-60" />
            </Array>
          </mxGeometry>
        </mxCell>
        <mxCell id="Rp7mxz4orwssZvqJoNBO-154" value="" style="endArrow=open;shadow=0;strokeWidth=1;rounded=0;endFill=1;edgeStyle=elbowEdgeStyle;elbow=vertical;exitX=0.75;exitY=0;exitDx=0;exitDy=0;entryX=0.25;entryY=0;entryDx=0;entryDy=0;" edge="1" parent="1" source="Rp7mxz4orwssZvqJoNBO-106" target="Rp7mxz4orwssZvqJoNBO-129">
          <mxGeometry x="0.5" y="41" relative="1" as="geometry">
            <mxPoint x="1422" y="30" as="sourcePoint" />
            <mxPoint x="1542" y="30" as="targetPoint" />
            <mxPoint x="-40" y="32" as="offset" />
            <Array as="points">
              <mxPoint x="1680" />
            </Array>
          </mxGeometry>
        </mxCell>
        <mxCell id="Rp7mxz4orwssZvqJoNBO-155" value="&lt;p style=&quot;margin:0px;margin-top:4px;text-align:center;&quot;&gt;SpinnerModel&lt;/p&gt;&lt;hr size=&quot;1&quot;&gt;&lt;div style=&quot;height:2px;&quot;&gt;&lt;/div&gt;" style="verticalAlign=top;align=left;overflow=fill;fontSize=12;fontFamily=Helvetica;html=1;whiteSpace=wrap;" vertex="1" parent="1">
          <mxGeometry x="1870" y="-170" width="140" height="60" as="geometry" />
        </mxCell>
        <mxCell id="Rp7mxz4orwssZvqJoNBO-156" value="Use" style="endArrow=open;endSize=12;dashed=1;html=1;rounded=0;exitX=1;exitY=0;exitDx=0;exitDy=0;entryX=0.5;entryY=1;entryDx=0;entryDy=0;" edge="1" parent="1" source="Rp7mxz4orwssZvqJoNBO-106" target="Rp7mxz4orwssZvqJoNBO-155">
          <mxGeometry width="160" relative="1" as="geometry">
            <mxPoint x="1762" y="-50" as="sourcePoint" />
            <mxPoint x="1922" y="-50" as="targetPoint" />
            <Array as="points">
              <mxPoint x="1652" y="-40" />
              <mxPoint x="1940" y="-40" />
            </Array>
          </mxGeometry>
        </mxCell>
        <mxCell id="Rp7mxz4orwssZvqJoNBO-157" value="&lt;p style=&quot;margin:0px;margin-top:4px;text-align:center;&quot;&gt;Dimension&lt;/p&gt;&lt;hr size=&quot;1&quot;&gt;&lt;div style=&quot;height:2px;&quot;&gt;&lt;/div&gt;" style="verticalAlign=top;align=left;overflow=fill;fontSize=12;fontFamily=Helvetica;html=1;whiteSpace=wrap;" vertex="1" parent="1">
          <mxGeometry x="1782" y="-250" width="140" height="60" as="geometry" />
        </mxCell>
        <mxCell id="Rp7mxz4orwssZvqJoNBO-158" value="Use" style="endArrow=open;endSize=12;dashed=1;html=1;rounded=0;exitX=1;exitY=0;exitDx=0;exitDy=0;entryX=0.5;entryY=1;entryDx=0;entryDy=0;" edge="1" parent="1" source="Rp7mxz4orwssZvqJoNBO-106" target="Rp7mxz4orwssZvqJoNBO-157">
          <mxGeometry width="160" relative="1" as="geometry">
            <mxPoint x="1820" y="20" as="sourcePoint" />
            <mxPoint x="2090" y="-50" as="targetPoint" />
            <Array as="points">
              <mxPoint x="1652" y="-40" />
              <mxPoint x="1852" y="-40" />
            </Array>
          </mxGeometry>
        </mxCell>
        <mxCell id="Rp7mxz4orwssZvqJoNBO-159" value="&lt;p style=&quot;margin:0px;margin-top:4px;text-align:center;&quot;&gt;BufferedImage&lt;/p&gt;&lt;hr size=&quot;1&quot;&gt;&lt;div style=&quot;height:2px;&quot;&gt;&lt;/div&gt;" style="verticalAlign=top;align=left;overflow=fill;fontSize=12;fontFamily=Helvetica;html=1;whiteSpace=wrap;" vertex="1" parent="1">
          <mxGeometry x="2038" y="-170" width="140" height="60" as="geometry" />
        </mxCell>
        <mxCell id="Rp7mxz4orwssZvqJoNBO-160" value="" style="endArrow=open;shadow=0;strokeWidth=1;rounded=0;endFill=1;edgeStyle=elbowEdgeStyle;elbow=vertical;entryX=0.5;entryY=1;entryDx=0;entryDy=0;exitX=0.806;exitY=-0.009;exitDx=0;exitDy=0;exitPerimeter=0;" edge="1" parent="1" source="Rp7mxz4orwssZvqJoNBO-1" target="Rp7mxz4orwssZvqJoNBO-159">
          <mxGeometry x="0.5" y="41" relative="1" as="geometry">
            <mxPoint x="350" y="10" as="sourcePoint" />
            <mxPoint x="1948" y="-100" as="targetPoint" />
            <mxPoint x="-40" y="32" as="offset" />
            <Array as="points">
              <mxPoint x="1990" y="-30" />
            </Array>
          </mxGeometry>
        </mxCell>
        <mxCell id="Rp7mxz4orwssZvqJoNBO-161" value="" style="endArrow=open;shadow=0;strokeWidth=1;rounded=0;endFill=1;edgeStyle=elbowEdgeStyle;elbow=vertical;entryX=0.5;entryY=1;entryDx=0;entryDy=0;exitX=0.5;exitY=0;exitDx=0;exitDy=0;" edge="1" parent="1" source="Rp7mxz4orwssZvqJoNBO-129" target="Rp7mxz4orwssZvqJoNBO-141">
          <mxGeometry x="0.5" y="41" relative="1" as="geometry">
            <mxPoint x="1875" y="30" as="sourcePoint" />
            <mxPoint x="2118" y="-100" as="targetPoint" />
            <mxPoint x="-40" y="32" as="offset" />
            <Array as="points">
              <mxPoint x="1800" y="-20" />
            </Array>
          </mxGeometry>
        </mxCell>
        <mxCell id="Rp7mxz4orwssZvqJoNBO-162" value="Use" style="endArrow=open;endSize=12;dashed=1;html=1;rounded=0;exitX=0.5;exitY=1;exitDx=0;exitDy=0;entryX=0.5;entryY=1.17;entryDx=0;entryDy=0;entryPerimeter=0;" edge="1" parent="1" source="Rp7mxz4orwssZvqJoNBO-83" target="Rp7mxz4orwssZvqJoNBO-48">
          <mxGeometry width="160" relative="1" as="geometry">
            <mxPoint x="1280" y="480" as="sourcePoint" />
            <mxPoint x="690" y="1140" as="targetPoint" />
            <Array as="points">
              <mxPoint x="1372" y="1140" />
              <mxPoint x="550" y="1140" />
            </Array>
          </mxGeometry>
        </mxCell>
        <mxCell id="Rp7mxz4orwssZvqJoNBO-164" value="Use" style="endArrow=open;endSize=12;dashed=1;html=1;rounded=0;entryX=0.5;entryY=1;entryDx=0;entryDy=0;" edge="1" parent="1" target="Rp7mxz4orwssZvqJoNBO-21">
          <mxGeometry width="160" relative="1" as="geometry">
            <mxPoint x="1370" y="690" as="sourcePoint" />
            <mxPoint x="415" y="850" as="targetPoint" />
            <Array as="points">
              <mxPoint x="1370" y="1140" />
              <mxPoint x="195" y="1140" />
            </Array>
          </mxGeometry>
        </mxCell>
        <mxCell id="Rp7mxz4orwssZvqJoNBO-165" value="&lt;p style=&quot;margin:0px;margin-top:4px;text-align:center;&quot;&gt;Graphics&lt;/p&gt;&lt;hr size=&quot;1&quot;&gt;&lt;div style=&quot;height:2px;&quot;&gt;&lt;/div&gt;" style="verticalAlign=top;align=left;overflow=fill;fontSize=12;fontFamily=Helvetica;html=1;whiteSpace=wrap;" vertex="1" parent="1">
          <mxGeometry x="1950" y="-250" width="140" height="60" as="geometry" />
        </mxCell>
        <mxCell id="Rp7mxz4orwssZvqJoNBO-166" value="Use" style="endArrow=open;endSize=12;dashed=1;html=1;rounded=0;exitX=1;exitY=0;exitDx=0;exitDy=0;entryX=0.5;entryY=1;entryDx=0;entryDy=0;" edge="1" parent="1" source="Rp7mxz4orwssZvqJoNBO-129" target="Rp7mxz4orwssZvqJoNBO-165">
          <mxGeometry width="160" relative="1" as="geometry">
            <mxPoint x="1820" y="20" as="sourcePoint" />
            <mxPoint x="2258" y="-50" as="targetPoint" />
            <Array as="points">
              <mxPoint x="1920" y="-10" />
              <mxPoint x="2020" y="-10" />
            </Array>
          </mxGeometry>
        </mxCell>
        <mxCell id="Rp7mxz4orwssZvqJoNBO-167" value="Use" style="endArrow=open;endSize=12;dashed=1;html=1;rounded=0;entryX=1;entryY=0.5;entryDx=0;entryDy=0;exitX=1;exitY=0.25;exitDx=0;exitDy=0;" edge="1" parent="1" source="Rp7mxz4orwssZvqJoNBO-70" target="Rp7mxz4orwssZvqJoNBO-15">
          <mxGeometry width="160" relative="1" as="geometry">
            <mxPoint x="1380" y="440" as="sourcePoint" />
            <mxPoint x="205" y="790" as="targetPoint" />
            <Array as="points">
              <mxPoint x="1050" y="974" />
              <mxPoint x="1050" y="393" />
            </Array>
          </mxGeometry>
        </mxCell>
        <mxCell id="Rp7mxz4orwssZvqJoNBO-168" value="Use" style="endArrow=open;endSize=12;dashed=1;html=1;rounded=0;exitX=1;exitY=0.25;exitDx=0;exitDy=0;entryX=0.75;entryY=1;entryDx=0;entryDy=0;" edge="1" parent="1" source="Rp7mxz4orwssZvqJoNBO-70" target="Rp7mxz4orwssZvqJoNBO-140">
          <mxGeometry width="160" relative="1" as="geometry">
            <mxPoint x="1015" y="984" as="sourcePoint" />
            <mxPoint x="700" y="-90" as="targetPoint" />
            <Array as="points">
              <mxPoint x="1050" y="974" />
              <mxPoint x="1050" y="120" />
              <mxPoint x="715" y="120" />
            </Array>
          </mxGeometry>
        </mxCell>
        <mxCell id="Rp7mxz4orwssZvqJoNBO-169" value="Use" style="endArrow=open;endSize=12;dashed=1;html=1;rounded=0;entryX=0.75;entryY=1;entryDx=0;entryDy=0;exitX=0.5;exitY=0;exitDx=0;exitDy=0;" edge="1" parent="1" source="Rp7mxz4orwssZvqJoNBO-65" target="Rp7mxz4orwssZvqJoNBO-140">
          <mxGeometry width="160" relative="1" as="geometry">
            <mxPoint x="1015" y="984" as="sourcePoint" />
            <mxPoint x="390" y="403" as="targetPoint" />
            <Array as="points">
              <mxPoint x="865" y="120" />
              <mxPoint x="715" y="120" />
            </Array>
          </mxGeometry>
        </mxCell>
        <mxCell id="Rp7mxz4orwssZvqJoNBO-170" value="Use" style="endArrow=open;endSize=12;dashed=1;html=1;rounded=0;exitX=1;exitY=0.5;exitDx=0;exitDy=0;entryX=0.75;entryY=1;entryDx=0;entryDy=0;" edge="1" parent="1" source="Rp7mxz4orwssZvqJoNBO-55" target="Rp7mxz4orwssZvqJoNBO-140">
          <mxGeometry width="160" relative="1" as="geometry">
            <mxPoint x="1015" y="984" as="sourcePoint" />
            <mxPoint x="725" y="-100" as="targetPoint" />
            <Array as="points">
              <mxPoint x="1050" y="1100" />
              <mxPoint x="1050" y="120" />
              <mxPoint x="715" y="120" />
            </Array>
          </mxGeometry>
        </mxCell>
        <mxCell id="Rp7mxz4orwssZvqJoNBO-171" value="Use" style="endArrow=open;endSize=12;dashed=1;html=1;rounded=0;exitX=1;exitY=0.5;exitDx=0;exitDy=0;entryX=1;entryY=1;entryDx=0;entryDy=0;" edge="1" parent="1" source="Rp7mxz4orwssZvqJoNBO-58" target="Rp7mxz4orwssZvqJoNBO-140">
          <mxGeometry width="160" relative="1" as="geometry">
            <mxPoint x="1015" y="984" as="sourcePoint" />
            <mxPoint x="725" y="-100" as="targetPoint" />
            <Array as="points">
              <mxPoint x="1050" y="755" />
              <mxPoint x="1050" y="110" />
              <mxPoint x="750" y="110" />
            </Array>
          </mxGeometry>
        </mxCell>
        <mxCell id="Rp7mxz4orwssZvqJoNBO-172" value="v" style="endArrow=open;shadow=0;strokeWidth=1;rounded=0;endFill=1;edgeStyle=elbowEdgeStyle;elbow=vertical;exitX=0.5;exitY=0;exitDx=0;exitDy=0;entryX=0.444;entryY=0.003;entryDx=0;entryDy=0;entryPerimeter=0;" edge="1" parent="1" target="Rp7mxz4orwssZvqJoNBO-21">
          <mxGeometry x="0.5" y="41" relative="1" as="geometry">
            <mxPoint x="1312" y="20" as="sourcePoint" />
            <mxPoint x="1000" y="30" as="targetPoint" />
            <mxPoint x="-40" y="32" as="offset" />
            <Array as="points">
              <mxPoint x="1192" y="-20" />
            </Array>
          </mxGeometry>
        </mxCell>
        <mxCell id="Rp7mxz4orwssZvqJoNBO-173" value="v" style="endArrow=open;shadow=0;strokeWidth=1;rounded=0;endFill=1;edgeStyle=elbowEdgeStyle;elbow=vertical;exitX=0.5;exitY=0;exitDx=0;exitDy=0;entryX=0.75;entryY=0;entryDx=0;entryDy=0;" edge="1" parent="1" target="Rp7mxz4orwssZvqJoNBO-26">
          <mxGeometry x="0.5" y="41" relative="1" as="geometry">
            <mxPoint x="1322" y="30" as="sourcePoint" />
            <mxPoint x="196" y="700" as="targetPoint" />
            <mxPoint x="-40" y="32" as="offset" />
            <Array as="points">
              <mxPoint x="1202" y="-10" />
            </Array>
          </mxGeometry>
        </mxCell>
        <mxCell id="Rp7mxz4orwssZvqJoNBO-174" value="v" style="endArrow=open;shadow=0;strokeWidth=1;rounded=0;endFill=1;edgeStyle=elbowEdgeStyle;elbow=vertical;exitX=0.5;exitY=0;exitDx=0;exitDy=0;entryX=0.81;entryY=-0.029;entryDx=0;entryDy=0;entryPerimeter=0;" edge="1" parent="1" target="Rp7mxz4orwssZvqJoNBO-56">
          <mxGeometry x="0.5" y="41" relative="1" as="geometry">
            <mxPoint x="1332" y="40" as="sourcePoint" />
            <mxPoint x="455" y="700" as="targetPoint" />
            <mxPoint x="-40" y="32" as="offset" />
            <Array as="points">
              <mxPoint x="1212" />
            </Array>
          </mxGeometry>
        </mxCell>
        <mxCell id="Rp7mxz4orwssZvqJoNBO-175" value="v" style="endArrow=open;shadow=0;strokeWidth=1;rounded=0;endFill=1;edgeStyle=elbowEdgeStyle;elbow=vertical;exitX=0.5;exitY=0;exitDx=0;exitDy=0;entryX=0.151;entryY=-0.068;entryDx=0;entryDy=0;entryPerimeter=0;" edge="1" parent="1" target="Rp7mxz4orwssZvqJoNBO-46">
          <mxGeometry x="0.5" y="41" relative="1" as="geometry">
            <mxPoint x="1342" y="50" as="sourcePoint" />
            <mxPoint x="980" y="694" as="targetPoint" />
            <mxPoint x="-40" y="32" as="offset" />
            <Array as="points">
              <mxPoint x="1222" y="10" />
            </Array>
          </mxGeometry>
        </mxCell>
        <mxCell id="Rp7mxz4orwssZvqJoNBO-176" value="Â«ObserverÂ»&lt;br&gt;actOnStatusChange(): void" style="html=1;whiteSpace=wrap;" vertex="1" parent="1">
          <mxGeometry x="1062" y="310" width="150" height="50" as="geometry" />
        </mxCell>
        <mxCell id="Rp7mxz4orwssZvqJoNBO-177" value="" style="endArrow=block;dashed=1;endFill=0;endSize=12;html=1;rounded=0;entryX=0.75;entryY=0;entryDx=0;entryDy=0;exitX=0.367;exitY=-0.004;exitDx=0;exitDy=0;exitPerimeter=0;" edge="1" parent="1" source="Rp7mxz4orwssZvqJoNBO-106" target="Rp7mxz4orwssZvqJoNBO-176">
          <mxGeometry width="160" relative="1" as="geometry">
            <mxPoint x="1380" y="820" as="sourcePoint" />
            <mxPoint x="1520" y="10" as="targetPoint" />
            <Array as="points">
              <mxPoint x="1320" y="-40" />
            </Array>
          </mxGeometry>
        </mxCell>
        <mxCell id="Rp7mxz4orwssZvqJoNBO-178" value="" style="endArrow=open;shadow=0;strokeWidth=1;rounded=0;endFill=1;edgeStyle=elbowEdgeStyle;elbow=vertical;exitX=-0.015;exitY=-0.005;exitDx=0;exitDy=0;exitPerimeter=0;" edge="1" parent="1" source="Rp7mxz4orwssZvqJoNBO-92">
          <mxGeometry x="0.5" y="41" relative="1" as="geometry">
            <mxPoint x="1201" y="730" as="sourcePoint" />
            <mxPoint x="1171" y="360" as="targetPoint" />
            <mxPoint x="-40" y="32" as="offset" />
            <Array as="points">
              <mxPoint x="871" y="450" />
            </Array>
          </mxGeometry>
        </mxCell>
        <mxCell id="Rp7mxz4orwssZvqJoNBO-179" value="Application" style="swimlane;fontStyle=1;align=center;verticalAlign=top;childLayout=stackLayout;horizontal=1;startSize=30;horizontalStack=0;resizeParent=1;resizeLast=0;collapsible=1;marginBottom=0;rounded=0;shadow=0;strokeWidth=1;" vertex="1" parent="1">
          <mxGeometry x="1948" y="20" width="230" height="340" as="geometry">
            <mxRectangle x="230" y="140" width="160" height="26" as="alternateBounds" />
          </mxGeometry>
        </mxCell>
        <mxCell id="Rp7mxz4orwssZvqJoNBO-180" value="" style="line;html=1;strokeWidth=1;align=left;verticalAlign=middle;spacingTop=-1;spacingLeft=3;spacingRight=3;rotatable=0;labelPosition=right;points=[];portConstraint=eastwest;" vertex="1" parent="Rp7mxz4orwssZvqJoNBO-179">
          <mxGeometry y="30" width="230" height="8" as="geometry" />
        </mxCell>
        <mxCell id="Rp7mxz4orwssZvqJoNBO-181" value="Main()" style="text;html=1;align=center;verticalAlign=middle;resizable=0;points=[];autosize=1;strokeColor=none;fillColor=none;" vertex="1" parent="1">
          <mxGeometry x="2000" y="78" width="60" height="30" as="geometry" />
        </mxCell>
        <mxCell id="Rp7mxz4orwssZvqJoNBO-182" value="" style="endArrow=open;shadow=0;strokeWidth=1;rounded=0;endFill=1;edgeStyle=elbowEdgeStyle;elbow=vertical;" edge="1" parent="1">
          <mxGeometry x="0.5" y="41" relative="1" as="geometry">
            <mxPoint x="2080" y="360" as="sourcePoint" />
            <mxPoint x="1370" y="700" as="targetPoint" />
            <mxPoint x="-40" y="32" as="offset" />
            <Array as="points">
              <mxPoint x="1710" y="690" />
            </Array>
          </mxGeometry>
        </mxCell>
        <mxCell id="Rp7mxz4orwssZvqJoNBO-183" value="" style="endArrow=open;shadow=0;strokeWidth=1;rounded=0;endFill=1;edgeStyle=elbowEdgeStyle;elbow=vertical;" edge="1" parent="1">
          <mxGeometry x="0.5" y="41" relative="1" as="geometry">
            <mxPoint x="2090" y="360" as="sourcePoint" />
            <mxPoint x="1560" y="610" as="targetPoint" />
            <mxPoint x="-40" y="32" as="offset" />
            <Array as="points">
              <mxPoint x="1840" y="660" />
            </Array>
          </mxGeometry>
        </mxCell>
        <mxCell id="Rp7mxz4orwssZvqJoNBO-184" value="Â«DrawableÂ»&lt;br&gt;getPoint()&lt;br&gt;getImage()" style="html=1;whiteSpace=wrap;" vertex="1" parent="1">
          <mxGeometry y="-160" width="198" height="60" as="geometry" />
        </mxCell>
        <mxCell id="Rp7mxz4orwssZvqJoNBO-185" value="" style="endArrow=block;dashed=1;endFill=0;endSize=12;html=1;rounded=0;entryX=0;entryY=0;entryDx=0;entryDy=0;exitX=0.595;exitY=1.035;exitDx=0;exitDy=0;exitPerimeter=0;" edge="1" parent="1" source="Rp7mxz4orwssZvqJoNBO-184" target="Rp7mxz4orwssZvqJoNBO-1">
          <mxGeometry width="160" relative="1" as="geometry">
            <mxPoint x="420" y="130" as="sourcePoint" />
            <mxPoint x="390" y="258" as="targetPoint" />
            <Array as="points">
              <mxPoint x="150" y="-50" />
            </Array>
          </mxGeometry>
        </mxCell>
        <mxCell id="Rp7mxz4orwssZvqJoNBO-190" value="Use" style="endArrow=open;endSize=12;dashed=1;html=1;rounded=0;entryX=0.045;entryY=0.955;entryDx=0;entryDy=0;entryPerimeter=0;" edge="1" parent="1" target="Rp7mxz4orwssZvqJoNBO-31">
          <mxGeometry width="160" relative="1" as="geometry">
            <mxPoint x="1380" y="700" as="sourcePoint" />
            <mxPoint x="205" y="820" as="targetPoint" />
            <Array as="points">
              <mxPoint x="1380" y="1150" />
              <mxPoint x="330" y="1140" />
            </Array>
          </mxGeometry>
        </mxCell>
        <mxCell id="Rp7mxz4orwssZvqJoNBO-191" value="Use" style="endArrow=open;endSize=12;dashed=1;html=1;rounded=0;exitX=1.024;exitY=0.172;exitDx=0;exitDy=0;entryX=-0.025;entryY=1.055;entryDx=0;entryDy=0;entryPerimeter=0;exitPerimeter=0;" edge="1" parent="1" source="Rp7mxz4orwssZvqJoNBO-59" target="Rp7mxz4orwssZvqJoNBO-92">
          <mxGeometry width="160" relative="1" as="geometry">
            <mxPoint x="810" y="1107" as="sourcePoint" />
            <mxPoint x="725" y="-100" as="targetPoint" />
            <Array as="points">
              <mxPoint x="1070" y="560" />
              <mxPoint x="1160" y="550" />
              <mxPoint x="1150" y="550" />
            </Array>
          </mxGeometry>
        </mxCell>
        <mxCell id="Rp7mxz4orwssZvqJoNBO-193" value="Controller&#xa;" style="swimlane;fontStyle=1;align=center;verticalAlign=top;childLayout=stackLayout;horizontal=1;startSize=30;horizontalStack=0;resizeParent=1;resizeLast=0;collapsible=1;marginBottom=0;rounded=0;shadow=0;strokeWidth=1;" vertex="1" parent="1">
          <mxGeometry x="2220" y="20" width="230" height="340" as="geometry">
            <mxRectangle x="230" y="140" width="160" height="26" as="alternateBounds" />
          </mxGeometry>
        </mxCell>
        <mxCell id="Rp7mxz4orwssZvqJoNBO-194" value="" style="line;html=1;strokeWidth=1;align=left;verticalAlign=middle;spacingTop=-1;spacingLeft=3;spacingRight=3;rotatable=0;labelPosition=right;points=[];portConstraint=eastwest;" vertex="1" parent="Rp7mxz4orwssZvqJoNBO-193">
          <mxGeometry y="30" width="230" height="8" as="geometry" />
        </mxCell>
        <mxCell id="Rp7mxz4orwssZvqJoNBO-195" value="+ Controller() : void" style="text;align=left;verticalAlign=top;spacingLeft=4;spacingRight=4;overflow=hidden;rotatable=0;points=[[0,0.5],[1,0.5]];portConstraint=eastwest;rounded=0;shadow=0;html=0;fontStyle=0" vertex="1" parent="Rp7mxz4orwssZvqJoNBO-193">
          <mxGeometry y="38" width="230" height="26" as="geometry" />
        </mxCell>
        <mxCell id="Rp7mxz4orwssZvqJoNBO-196" value="- initComponents() : void" style="text;align=left;verticalAlign=top;spacingLeft=4;spacingRight=4;overflow=hidden;rotatable=0;points=[[0,0.5],[1,0.5]];portConstraint=eastwest;rounded=0;shadow=0;html=0;fontStyle=0" vertex="1" parent="Rp7mxz4orwssZvqJoNBO-193">
          <mxGeometry y="64" width="230" height="26" as="geometry" />
        </mxCell>
        <mxCell id="Rp7mxz4orwssZvqJoNBO-197" value="+ stateChanged() : void" style="text;align=left;verticalAlign=top;spacingLeft=4;spacingRight=4;overflow=hidden;rotatable=0;points=[[0,0.5],[1,0.5]];portConstraint=eastwest;rounded=0;shadow=0;html=0;fontStyle=0" vertex="1" parent="Rp7mxz4orwssZvqJoNBO-193">
          <mxGeometry y="90" width="230" height="26" as="geometry" />
        </mxCell>
        <mxCell id="Rp7mxz4orwssZvqJoNBO-198" value="+ actionPerformed() : void" style="text;align=left;verticalAlign=top;spacingLeft=4;spacingRight=4;overflow=hidden;rotatable=0;points=[[0,0.5],[1,0.5]];portConstraint=eastwest;rounded=0;shadow=0;html=0;fontStyle=0" vertex="1" parent="Rp7mxz4orwssZvqJoNBO-193">
          <mxGeometry y="116" width="230" height="26" as="geometry" />
        </mxCell>
        <mxCell id="Rp7mxz4orwssZvqJoNBO-199" value="Use" style="endArrow=open;endSize=12;dashed=1;html=1;rounded=0;exitX=0.392;exitY=-0.007;exitDx=0;exitDy=0;exitPerimeter=0;entryX=1;entryY=0.5;entryDx=0;entryDy=0;" edge="1" parent="1" source="Rp7mxz4orwssZvqJoNBO-193" target="Rp7mxz4orwssZvqJoNBO-121">
          <mxGeometry width="160" relative="1" as="geometry">
            <mxPoint x="1932" y="30" as="sourcePoint" />
            <mxPoint x="2200" y="440" as="targetPoint" />
            <Array as="points">
              <mxPoint x="2200" y="10" />
              <mxPoint x="2200" y="390" />
            </Array>
          </mxGeometry>
        </mxCell>
        <mxCell id="Rp7mxz4orwssZvqJoNBO-200" value="Use" style="endArrow=open;endSize=12;dashed=1;html=1;rounded=0;exitX=0.392;exitY=-0.007;exitDx=0;exitDy=0;exitPerimeter=0;" edge="1" parent="1">
          <mxGeometry width="160" relative="1" as="geometry">
            <mxPoint x="2320" y="28" as="sourcePoint" />
            <mxPoint x="1460" y="710" as="targetPoint" />
            <Array as="points">
              <mxPoint x="2210" y="20" />
              <mxPoint x="2190" y="730" />
            </Array>
          </mxGeometry>
        </mxCell>
        <mxCell id="Rp7mxz4orwssZvqJoNBO-202" value="" style="endArrow=open;shadow=0;strokeWidth=1;rounded=0;endFill=1;edgeStyle=elbowEdgeStyle;elbow=vertical;" edge="1" parent="1">
          <mxGeometry x="0.5" y="41" relative="1" as="geometry">
            <mxPoint x="2100" y="370" as="sourcePoint" />
            <mxPoint x="2361.0526315789475" y="360" as="targetPoint" />
            <mxPoint x="-40" y="32" as="offset" />
            <Array as="points">
              <mxPoint x="1850" y="670" />
            </Array>
          </mxGeometry>
        </mxCell>
        <mxCell id="Rp7mxz4orwssZvqJoNBO-203" value="CarButtons" style="swimlane;fontStyle=1;align=center;verticalAlign=top;childLayout=stackLayout;horizontal=1;startSize=30;horizontalStack=0;resizeParent=1;resizeLast=0;collapsible=1;marginBottom=0;rounded=0;shadow=0;strokeWidth=1;" vertex="1" parent="1">
          <mxGeometry x="2240" y="-430" width="230" height="340" as="geometry">
            <mxRectangle x="230" y="140" width="160" height="26" as="alternateBounds" />
          </mxGeometry>
        </mxCell>
        <mxCell id="Rp7mxz4orwssZvqJoNBO-204" value="" style="line;html=1;strokeWidth=1;align=left;verticalAlign=middle;spacingTop=-1;spacingLeft=3;spacingRight=3;rotatable=0;labelPosition=right;points=[];portConstraint=eastwest;" vertex="1" parent="Rp7mxz4orwssZvqJoNBO-203">
          <mxGeometry y="30" width="230" height="8" as="geometry" />
        </mxCell>
        <mxCell id="Rp7mxz4orwssZvqJoNBO-205" value="+ add : JButton" style="text;align=left;verticalAlign=top;spacingLeft=4;spacingRight=4;overflow=hidden;rotatable=0;points=[[0,0.5],[1,0.5]];portConstraint=eastwest;rounded=0;shadow=0;html=0;fontStyle=0" vertex="1" parent="Rp7mxz4orwssZvqJoNBO-203">
          <mxGeometry y="38" width="230" height="26" as="geometry" />
        </mxCell>
        <mxCell id="Rp7mxz4orwssZvqJoNBO-209" value="+ remove : JButton" style="text;align=left;verticalAlign=top;spacingLeft=4;spacingRight=4;overflow=hidden;rotatable=0;points=[[0,0.5],[1,0.5]];portConstraint=eastwest;rounded=0;shadow=0;html=0;fontStyle=0" vertex="1" parent="Rp7mxz4orwssZvqJoNBO-203">
          <mxGeometry y="64" width="230" height="26" as="geometry" />
        </mxCell>
        <mxCell id="Rp7mxz4orwssZvqJoNBO-210" value="+ CarButtons() : void" style="text;align=left;verticalAlign=top;spacingLeft=4;spacingRight=4;overflow=hidden;rotatable=0;points=[[0,0.5],[1,0.5]];portConstraint=eastwest;rounded=0;shadow=0;html=0;fontStyle=0" vertex="1" parent="Rp7mxz4orwssZvqJoNBO-203">
          <mxGeometry y="90" width="230" height="26" as="geometry" />
        </mxCell>
        <mxCell id="Rp7mxz4orwssZvqJoNBO-211" value="- initComponents() : void" style="text;align=left;verticalAlign=top;spacingLeft=4;spacingRight=4;overflow=hidden;rotatable=0;points=[[0,0.5],[1,0.5]];portConstraint=eastwest;rounded=0;shadow=0;html=0;fontStyle=0" vertex="1" parent="Rp7mxz4orwssZvqJoNBO-203">
          <mxGeometry y="116" width="230" height="26" as="geometry" />
        </mxCell>
        <mxCell id="Rp7mxz4orwssZvqJoNBO-212" value="+ actionPerformed() : void" style="text;align=left;verticalAlign=top;spacingLeft=4;spacingRight=4;overflow=hidden;rotatable=0;points=[[0,0.5],[1,0.5]];portConstraint=eastwest;rounded=0;shadow=0;html=0;fontStyle=0" vertex="1" parent="Rp7mxz4orwssZvqJoNBO-203">
          <mxGeometry y="142" width="230" height="26" as="geometry" />
        </mxCell>
        <mxCell id="Rp7mxz4orwssZvqJoNBO-213" value="Use" style="endArrow=open;endSize=12;dashed=1;html=1;rounded=0;entryX=1.047;entryY=0;entryDx=0;entryDy=0;entryPerimeter=0;" edge="1" parent="1" target="Rp7mxz4orwssZvqJoNBO-123">
          <mxGeometry width="160" relative="1" as="geometry">
            <mxPoint x="2240" y="-130" as="sourcePoint" />
            <mxPoint x="1672" y="411" as="targetPoint" />
            <Array as="points">
              <mxPoint x="2190" y="20" />
              <mxPoint x="2210" y="400" />
            </Array>
          </mxGeometry>
        </mxCell>
        <mxCell id="Rp7mxz4orwssZvqJoNBO-214" value="Use" style="endArrow=open;endSize=12;dashed=1;html=1;rounded=0;entryX=1.031;entryY=-0.136;entryDx=0;entryDy=0;entryPerimeter=0;" edge="1" parent="1" target="Rp7mxz4orwssZvqJoNBO-188">
          <mxGeometry width="160" relative="1" as="geometry">
            <mxPoint x="2240" y="-90" as="sourcePoint" />
            <mxPoint x="1680" y="450" as="targetPoint" />
            <Array as="points">
              <mxPoint x="2200" y="30" />
              <mxPoint x="2220" y="520" />
            </Array>
          </mxGeometry>
        </mxCell>
        <mxCell id="Rp7mxz4orwssZvqJoNBO-215" value="" style="endArrow=open;shadow=0;strokeWidth=1;rounded=0;endFill=1;edgeStyle=elbowEdgeStyle;elbow=vertical;entryX=0.5;entryY=1;entryDx=0;entryDy=0;" edge="1" parent="1">
          <mxGeometry x="0.5" y="41" relative="1" as="geometry">
            <mxPoint x="2270" y="-90" as="sourcePoint" />
            <mxPoint x="1430" y="-100" as="targetPoint" />
            <mxPoint x="-40" y="32" as="offset" />
            <Array as="points">
              <mxPoint x="1530" y="-50" />
            </Array>
          </mxGeometry>
        </mxCell>
      </root>
    </mxGraphModel>
  </diagram>
</mxfile>
